<svg xmlns="http://www.w3.org/2000/svg" xmlns:xlink="http://www.w3.org/1999/xlink" width="400" zoomAndPan="magnify" viewBox="0 0 300 74.999997" height="100" preserveAspectRatio="xMidYMid meet" version="1.0"><defs><g/><clipPath id="dd8eb64c3c"><path d="M 146 24 L 152.535156 24 L 152.535156 29 L 146 29 Z M 146 24 " clip-rule="nonzero"/></clipPath><clipPath id="32c737481a"><path d="M 100.164062 16.125 L 139 16.125 L 139 70.875 L 100.164062 70.875 Z M 100.164062 16.125 " clip-rule="nonzero"/></clipPath></defs><g fill="#000000" fill-opacity="1"><g transform="translate(39.557028, 55.874994)"><g><path d="M 14 -0.625 C 14.113281 -0.476562 14.171875 -0.328125 14.171875 -0.171875 C 14.171875 0.0351562 14.097656 0.207031 13.953125 0.34375 C 13.816406 0.476562 13.648438 0.546875 13.453125 0.546875 C 13.253906 0.546875 13.082031 0.476562 12.9375 0.34375 C 12.789062 0.207031 12.71875 0.0351562 12.71875 -0.171875 C 12.71875 -0.328125 12.769531 -0.476562 12.875 -0.625 L 12.875 -26.875 L 3.46875 -26.875 L 3.46875 -0.625 C 3.582031 -0.476562 3.640625 -0.328125 3.640625 -0.171875 C 3.640625 0.0351562 3.566406 0.207031 3.421875 0.34375 C 3.273438 0.476562 3.101562 0.546875 2.90625 0.546875 C 2.695312 0.546875 2.523438 0.476562 2.390625 0.34375 C 2.253906 0.207031 2.1875 0.0351562 2.1875 -0.171875 C 2.1875 -0.328125 2.242188 -0.476562 2.359375 -0.625 L 2.359375 -32.8125 C 2.359375 -33.613281 2.445312 -34.394531 2.625 -35.15625 C 2.8125 -35.925781 3.128906 -36.613281 3.578125 -37.21875 C 4.035156 -37.820312 4.640625 -38.304688 5.390625 -38.671875 C 6.148438 -39.035156 7.097656 -39.21875 8.234375 -39.21875 L 14 -39.21875 Z M 12.875 -28 L 12.875 -38.09375 L 8.234375 -38.09375 C 7.304688 -38.09375 6.535156 -37.9375 5.921875 -37.625 C 5.304688 -37.3125 4.816406 -36.90625 4.453125 -36.40625 C 4.085938 -35.90625 3.832031 -35.335938 3.6875 -34.703125 C 3.539062 -34.078125 3.46875 -33.445312 3.46875 -32.8125 L 3.46875 -28 Z M 12.875 -28 "/></g></g></g><g fill="#000000" fill-opacity="1"><g transform="translate(62.962312, 55.874994)"><g><path d="M 14 -5.828125 C 14 -5.023438 13.898438 -4.238281 13.703125 -3.46875 C 13.503906 -2.707031 13.175781 -2.03125 12.71875 -1.4375 C 12.257812 -0.84375 11.65625 -0.363281 10.90625 0 C 10.164062 0.363281 9.253906 0.546875 8.171875 0.546875 C 7.066406 0.546875 6.140625 0.363281 5.390625 0 C 4.640625 -0.363281 4.039062 -0.84375 3.59375 -1.4375 C 3.144531 -2.03125 2.828125 -2.707031 2.640625 -3.46875 C 2.453125 -4.238281 2.359375 -5.023438 2.359375 -5.828125 L 2.359375 -38.53125 C 2.242188 -38.695312 2.1875 -38.859375 2.1875 -39.015625 C 2.1875 -39.222656 2.253906 -39.398438 2.390625 -39.546875 C 2.523438 -39.691406 2.695312 -39.765625 2.90625 -39.765625 C 3.101562 -39.765625 3.273438 -39.691406 3.421875 -39.546875 C 3.566406 -39.398438 3.640625 -39.222656 3.640625 -39.015625 C 3.640625 -38.859375 3.582031 -38.695312 3.46875 -38.53125 L 3.46875 -5.828125 C 3.46875 -5.191406 3.546875 -4.554688 3.703125 -3.921875 C 3.859375 -3.296875 4.117188 -2.734375 4.484375 -2.234375 C 4.847656 -1.734375 5.332031 -1.328125 5.9375 -1.015625 C 6.539062 -0.703125 7.285156 -0.546875 8.171875 -0.546875 C 9.066406 -0.546875 9.816406 -0.703125 10.421875 -1.015625 C 11.023438 -1.328125 11.507812 -1.734375 11.875 -2.234375 C 12.238281 -2.734375 12.492188 -3.296875 12.640625 -3.921875 C 12.796875 -4.554688 12.875 -5.191406 12.875 -5.828125 L 12.875 -38.53125 C 12.769531 -38.695312 12.71875 -38.859375 12.71875 -39.015625 C 12.71875 -39.222656 12.789062 -39.398438 12.9375 -39.546875 C 13.082031 -39.691406 13.253906 -39.765625 13.453125 -39.765625 C 13.648438 -39.765625 13.816406 -39.691406 13.953125 -39.546875 C 14.097656 -39.398438 14.171875 -39.222656 14.171875 -39.015625 C 14.171875 -38.859375 14.113281 -38.695312 14 -38.53125 Z M 14 -5.828125 "/></g></g></g><g fill="#000000" fill-opacity="1"><g transform="translate(86.367595, 55.874994)"><g><path d="M 7.109375 -0.625 C 7.222656 -0.476562 7.28125 -0.328125 7.28125 -0.171875 C 7.28125 0.0351562 7.207031 0.207031 7.0625 0.34375 C 6.925781 0.476562 6.757812 0.546875 6.5625 0.546875 C 6.363281 0.546875 6.191406 0.476562 6.046875 0.34375 C 5.898438 0.207031 5.828125 0.0351562 5.828125 -0.171875 C 5.828125 -0.328125 5.878906 -0.476562 5.984375 -0.625 L 5.984375 -38.09375 L 1.71875 -38.09375 C 1.59375 -37.96875 1.445312 -37.90625 1.28125 -37.90625 C 1.082031 -37.90625 0.910156 -37.976562 0.765625 -38.125 C 0.617188 -38.269531 0.546875 -38.441406 0.546875 -38.640625 C 0.546875 -38.835938 0.617188 -39.007812 0.765625 -39.15625 C 0.910156 -39.300781 1.082031 -39.375 1.28125 -39.375 C 1.46875 -39.375 1.613281 -39.320312 1.71875 -39.21875 L 11.328125 -39.21875 C 11.484375 -39.320312 11.644531 -39.375 11.8125 -39.375 C 12.007812 -39.375 12.179688 -39.300781 12.328125 -39.15625 C 12.472656 -39.007812 12.546875 -38.835938 12.546875 -38.640625 C 12.546875 -38.441406 12.472656 -38.269531 12.328125 -38.125 C 12.179688 -37.976562 12.007812 -37.90625 11.8125 -37.90625 C 11.664062 -37.90625 11.503906 -37.96875 11.328125 -38.09375 L 7.109375 -38.09375 Z M 7.109375 -0.625 "/></g></g></g><g fill="#000000" fill-opacity="1"><g transform="translate(106.529679, 55.874994)"><g/></g></g><g fill="#000000" fill-opacity="1"><g transform="translate(122.88126, 55.874994)"><g/></g></g><g fill="#000000" fill-opacity="1"><g transform="translate(139.23284, 55.874994)"><g/></g></g><g fill="#000000" fill-opacity="1"><g transform="translate(155.596085, 55.874994)"><g><path d="M 7.109375 -0.625 C 7.222656 -0.476562 7.28125 -0.328125 7.28125 -0.171875 C 7.28125 0.0351562 7.207031 0.207031 7.0625 0.34375 C 6.925781 0.476562 6.757812 0.546875 6.5625 0.546875 C 6.363281 0.546875 6.191406 0.476562 6.046875 0.34375 C 5.898438 0.207031 5.828125 0.0351562 5.828125 -0.171875 C 5.828125 -0.328125 5.878906 -0.476562 5.984375 -0.625 L 5.984375 -38.09375 L 1.71875 -38.09375 C 1.59375 -37.96875 1.445312 -37.90625 1.28125 -37.90625 C 1.082031 -37.90625 0.910156 -37.976562 0.765625 -38.125 C 0.617188 -38.269531 0.546875 -38.441406 0.546875 -38.640625 C 0.546875 -38.835938 0.617188 -39.007812 0.765625 -39.15625 C 0.910156 -39.300781 1.082031 -39.375 1.28125 -39.375 C 1.46875 -39.375 1.613281 -39.320312 1.71875 -39.21875 L 11.328125 -39.21875 C 11.484375 -39.320312 11.644531 -39.375 11.8125 -39.375 C 12.007812 -39.375 12.179688 -39.300781 12.328125 -39.15625 C 12.472656 -39.007812 12.546875 -38.835938 12.546875 -38.640625 C 12.546875 -38.441406 12.472656 -38.269531 12.328125 -38.125 C 12.179688 -37.976562 12.007812 -37.90625 11.8125 -37.90625 C 11.664062 -37.90625 11.503906 -37.96875 11.328125 -38.09375 L 7.109375 -38.09375 Z M 7.109375 -0.625 "/></g></g></g><g fill="#000000" fill-opacity="1"><g transform="translate(175.747916, 55.874994)"><g><path d="M 13.671875 -0.84375 C 13.796875 -0.8125 13.925781 -0.710938 14.0625 -0.546875 C 14.164062 -0.378906 14.191406 -0.195312 14.140625 0 C 14.097656 0.1875 13.976562 0.332031 13.78125 0.4375 C 13.632812 0.5625 13.460938 0.59375 13.265625 0.53125 C 13.066406 0.46875 12.921875 0.363281 12.828125 0.21875 C 12.773438 0.125 12.742188 0.0390625 12.734375 -0.03125 C 12.722656 -0.101562 12.71875 -0.1875 12.71875 -0.28125 L 6.265625 -11.21875 L 3.53125 -11.21875 L 3.53125 -0.625 C 3.632812 -0.476562 3.6875 -0.328125 3.6875 -0.171875 C 3.6875 0.0351562 3.617188 0.207031 3.484375 0.34375 C 3.347656 0.476562 3.179688 0.546875 2.984375 0.546875 C 2.785156 0.546875 2.613281 0.476562 2.46875 0.34375 C 2.320312 0.207031 2.25 0.0351562 2.25 -0.171875 C 2.25 -0.328125 2.300781 -0.476562 2.40625 -0.625 L 2.40625 -39.21875 L 8.390625 -39.21875 C 9.503906 -39.21875 10.429688 -39.035156 11.171875 -38.671875 C 11.910156 -38.304688 12.503906 -37.820312 12.953125 -37.21875 C 13.410156 -36.613281 13.734375 -35.925781 13.921875 -35.15625 C 14.117188 -34.394531 14.21875 -33.613281 14.21875 -32.8125 L 14.21875 -17.421875 C 14.21875 -16.617188 14.117188 -15.84375 13.921875 -15.09375 C 13.734375 -14.34375 13.410156 -13.679688 12.953125 -13.109375 C 12.503906 -12.535156 11.910156 -12.078125 11.171875 -11.734375 C 10.429688 -11.390625 9.503906 -11.21875 8.390625 -11.21875 L 7.546875 -11.21875 Z M 8.390625 -12.328125 C 9.285156 -12.328125 10.035156 -12.46875 10.640625 -12.75 C 11.242188 -13.039062 11.726562 -13.421875 12.09375 -13.890625 C 12.457031 -14.367188 12.710938 -14.910156 12.859375 -15.515625 C 13.015625 -16.128906 13.09375 -16.765625 13.09375 -17.421875 L 13.09375 -32.8125 C 13.09375 -33.445312 13.015625 -34.078125 12.859375 -34.703125 C 12.710938 -35.335938 12.457031 -35.90625 12.09375 -36.40625 C 11.726562 -36.90625 11.242188 -37.3125 10.640625 -37.625 C 10.035156 -37.9375 9.285156 -38.09375 8.390625 -38.09375 L 3.53125 -38.09375 L 3.53125 -12.328125 Z M 8.390625 -12.328125 "/></g></g></g><g fill="#000000" fill-opacity="1"><g transform="translate(198.71576, 55.874994)"><g><path d="M 14 -0.625 C 14.113281 -0.476562 14.171875 -0.328125 14.171875 -0.171875 C 14.171875 0.0351562 14.097656 0.207031 13.953125 0.34375 C 13.816406 0.476562 13.648438 0.546875 13.453125 0.546875 C 13.253906 0.546875 13.082031 0.476562 12.9375 0.34375 C 12.789062 0.207031 12.71875 0.0351562 12.71875 -0.171875 C 12.71875 -0.328125 12.769531 -0.476562 12.875 -0.625 L 12.875 -26.875 L 3.46875 -26.875 L 3.46875 -0.625 C 3.582031 -0.476562 3.640625 -0.328125 3.640625 -0.171875 C 3.640625 0.0351562 3.566406 0.207031 3.421875 0.34375 C 3.273438 0.476562 3.101562 0.546875 2.90625 0.546875 C 2.695312 0.546875 2.523438 0.476562 2.390625 0.34375 C 2.253906 0.207031 2.1875 0.0351562 2.1875 -0.171875 C 2.1875 -0.328125 2.242188 -0.476562 2.359375 -0.625 L 2.359375 -32.8125 C 2.359375 -33.613281 2.445312 -34.394531 2.625 -35.15625 C 2.8125 -35.925781 3.128906 -36.613281 3.578125 -37.21875 C 4.035156 -37.820312 4.640625 -38.304688 5.390625 -38.671875 C 6.148438 -39.035156 7.097656 -39.21875 8.234375 -39.21875 L 14 -39.21875 Z M 12.875 -28 L 12.875 -38.09375 L 8.234375 -38.09375 C 7.304688 -38.09375 6.535156 -37.9375 5.921875 -37.625 C 5.304688 -37.3125 4.816406 -36.90625 4.453125 -36.40625 C 4.085938 -35.90625 3.832031 -35.335938 3.6875 -34.703125 C 3.539062 -34.078125 3.46875 -33.445312 3.46875 -32.8125 L 3.46875 -28 Z M 12.875 -28 "/></g></g></g><g fill="#000000" fill-opacity="1"><g transform="translate(222.121044, 55.874994)"><g><path d="M 14.0625 -6.375 C 14.0625 -5.570312 13.960938 -4.789062 13.765625 -4.03125 C 13.578125 -3.28125 13.257812 -2.601562 12.8125 -2 C 12.363281 -1.394531 11.757812 -0.910156 11 -0.546875 C 10.25 -0.179688 9.304688 0 8.171875 0 L 2.40625 0 L 2.40625 -39.21875 L 8.171875 -39.21875 C 9.304688 -39.21875 10.25 -39.035156 11 -38.671875 C 11.757812 -38.304688 12.363281 -37.820312 12.8125 -37.21875 C 13.257812 -36.613281 13.578125 -35.925781 13.765625 -35.15625 C 13.960938 -34.394531 14.0625 -33.613281 14.0625 -32.8125 Z M 8.171875 -1.125 C 9.109375 -1.125 9.878906 -1.273438 10.484375 -1.578125 C 11.097656 -1.890625 11.585938 -2.289062 11.953125 -2.78125 C 12.316406 -3.28125 12.570312 -3.84375 12.71875 -4.46875 C 12.863281 -5.101562 12.9375 -5.738281 12.9375 -6.375 L 12.9375 -32.8125 C 12.9375 -33.445312 12.863281 -34.078125 12.71875 -34.703125 C 12.570312 -35.335938 12.316406 -35.90625 11.953125 -36.40625 C 11.585938 -36.90625 11.097656 -37.3125 10.484375 -37.625 C 9.878906 -37.9375 9.109375 -38.09375 8.171875 -38.09375 L 3.53125 -38.09375 L 3.53125 -1.125 Z M 8.171875 -1.125 "/></g></g></g><g fill="#000000" fill-opacity="1"><g transform="translate(245.471647, 55.874994)"><g><path d="M 12.765625 -1.125 C 12.929688 -1.226562 13.097656 -1.28125 13.265625 -1.28125 C 13.460938 -1.28125 13.632812 -1.207031 13.78125 -1.0625 C 13.925781 -0.914062 14 -0.742188 14 -0.546875 C 14 -0.347656 13.925781 -0.175781 13.78125 -0.03125 C 13.632812 0.101562 13.460938 0.171875 13.265625 0.171875 C 13.097656 0.171875 12.929688 0.113281 12.765625 0 L 2.359375 0 L 2.359375 -32.875 C 2.359375 -33.675781 2.445312 -34.453125 2.625 -35.203125 C 2.8125 -35.960938 3.128906 -36.640625 3.578125 -37.234375 C 4.035156 -37.828125 4.640625 -38.304688 5.390625 -38.671875 C 6.148438 -39.035156 7.097656 -39.21875 8.234375 -39.21875 L 12.765625 -39.21875 C 12.929688 -39.320312 13.097656 -39.375 13.265625 -39.375 C 13.460938 -39.375 13.632812 -39.300781 13.78125 -39.15625 C 13.925781 -39.007812 14 -38.835938 14 -38.640625 C 14 -38.441406 13.925781 -38.269531 13.78125 -38.125 C 13.632812 -37.976562 13.460938 -37.90625 13.265625 -37.90625 C 13.117188 -37.90625 12.953125 -37.96875 12.765625 -38.09375 L 8.234375 -38.09375 C 7.304688 -38.09375 6.535156 -37.941406 5.921875 -37.640625 C 5.304688 -37.335938 4.816406 -36.941406 4.453125 -36.453125 C 4.085938 -35.960938 3.832031 -35.398438 3.6875 -34.765625 C 3.539062 -34.140625 3.46875 -33.507812 3.46875 -32.875 L 3.46875 -28 L 11.15625 -28 C 11.320312 -28.113281 11.488281 -28.171875 11.65625 -28.171875 C 11.851562 -28.171875 12.023438 -28.097656 12.171875 -27.953125 C 12.316406 -27.816406 12.390625 -27.648438 12.390625 -27.453125 C 12.390625 -27.253906 12.316406 -27.082031 12.171875 -26.9375 C 12.023438 -26.789062 11.851562 -26.71875 11.65625 -26.71875 C 11.488281 -26.71875 11.320312 -26.769531 11.15625 -26.875 L 3.46875 -26.875 L 3.46875 -1.125 Z M 12.765625 -1.125 "/></g></g></g><path fill="#101010" d="M 141.347656 32.46875 C 141.363281 32.464844 141.375 32.460938 141.390625 32.457031 L 145.113281 31.734375 C 145.28125 31.695312 145.453125 31.675781 145.625 31.675781 C 146.082031 31.675781 146.519531 31.8125 146.886719 32.078125 C 147.363281 32.421875 147.660156 32.945312 147.703125 33.511719 L 147.792969 34.679688 C 147.875 35.742188 147.0625 36.667969 145.949219 36.789062 C 145.941406 36.789062 145.933594 36.789062 145.925781 36.789062 L 142.453125 37.074219 C 142.375 37.082031 142.300781 37.085938 142.226562 37.085938 C 141.410156 37.085938 140.667969 36.628906 140.328125 35.925781 L 139.980469 35.199219 C 139.734375 34.683594 139.734375 34.089844 139.976562 33.574219 C 140.234375 33.023438 140.734375 32.621094 141.347656 32.46875 Z M 141.464844 34.488281 L 141.816406 35.214844 C 141.878906 35.347656 142.050781 35.4375 142.230469 35.4375 C 142.25 35.4375 142.269531 35.4375 142.289062 35.433594 C 142.296875 35.433594 142.304688 35.433594 142.308594 35.433594 L 145.78125 35.152344 L 145.78125 35.148438 C 146 35.121094 146.164062 34.972656 146.152344 34.804688 L 146.0625 33.636719 C 146.054688 33.550781 146.007812 33.472656 145.921875 33.414062 C 145.804688 33.328125 145.640625 33.300781 145.488281 33.339844 C 145.476562 33.339844 145.460938 33.34375 145.445312 33.347656 L 141.730469 34.070312 L 141.726562 34.070312 C 141.554688 34.121094 141.488281 34.230469 141.464844 34.273438 C 141.433594 34.34375 141.433594 34.417969 141.464844 34.488281 Z M 141.464844 34.488281 " fill-opacity="1" fill-rule="nonzero"/><g clip-path="url(#dd8eb64c3c)"><path fill="#101010" d="M 149.101562 28.3125 C 148.695312 28.3125 148.347656 28.011719 148.289062 27.613281 C 148.21875 27.164062 148.53125 26.742188 148.980469 26.675781 L 150.796875 26.402344 L 150.730469 25.835938 L 147.804688 25.8125 C 147.351562 25.8125 146.984375 25.4375 146.988281 24.984375 C 146.992188 24.535156 147.359375 24.167969 147.8125 24.167969 L 150.789062 24.191406 C 151.589844 24.191406 152.269531 24.808594 152.363281 25.625 L 152.433594 26.21875 C 152.535156 27.101562 151.921875 27.914062 151.066406 28.027344 L 149.222656 28.304688 C 149.183594 28.308594 149.140625 28.3125 149.101562 28.3125 Z M 149.101562 28.3125 " fill-opacity="1" fill-rule="nonzero"/></g><path fill="#101010" d="M 122.601562 37.085938 C 122.527344 37.085938 122.453125 37.082031 122.378906 37.074219 L 118.902344 36.789062 C 118.894531 36.789062 118.890625 36.789062 118.882812 36.789062 C 117.765625 36.667969 116.957031 35.742188 117.035156 34.679688 L 117.125 33.511719 C 117.167969 32.945312 117.46875 32.421875 117.941406 32.078125 C 118.308594 31.816406 118.746094 31.675781 119.203125 31.675781 C 119.375 31.675781 119.546875 31.695312 119.714844 31.734375 L 123.4375 32.457031 C 123.453125 32.460938 123.46875 32.464844 123.484375 32.46875 C 124.09375 32.621094 124.59375 33.023438 124.855469 33.574219 C 125.097656 34.089844 125.09375 34.683594 124.847656 35.199219 L 124.5 35.925781 C 124.164062 36.628906 123.417969 37.085938 122.601562 37.085938 Z M 123.363281 34.273438 C 123.34375 34.230469 123.277344 34.121094 123.105469 34.070312 L 123.09375 34.070312 L 119.382812 33.347656 C 119.371094 33.34375 119.355469 33.34375 119.339844 33.339844 C 119.1875 33.300781 119.023438 33.328125 118.90625 33.414062 C 118.824219 33.472656 118.773438 33.554688 118.769531 33.636719 L 118.679688 34.804688 C 118.664062 34.972656 118.828125 35.121094 119.046875 35.152344 L 122.519531 35.433594 C 122.527344 35.433594 122.535156 35.433594 122.539062 35.4375 C 122.558594 35.4375 122.578125 35.4375 122.597656 35.4375 C 122.78125 35.4375 122.953125 35.347656 123.015625 35.214844 L 123.363281 34.488281 C 123.398438 34.417969 123.398438 34.34375 123.363281 34.273438 Z M 123.363281 34.273438 " fill-opacity="1" fill-rule="nonzero"/><path fill="#101010" d="M 112.46875 25.625 C 112.5625 24.808594 113.238281 24.1875 114.042969 24.1875 L 117.019531 24.167969 C 117.46875 24.167969 117.839844 24.535156 117.84375 24.984375 C 117.84375 25.203125 117.761719 25.410156 117.605469 25.566406 C 117.453125 25.726562 117.246094 25.8125 117.023438 25.8125 L 114.101562 25.835938 L 114.035156 26.402344 L 115.851562 26.675781 C 116.066406 26.707031 116.261719 26.824219 116.390625 27 C 116.519531 27.175781 116.574219 27.394531 116.542969 27.613281 C 116.484375 28.011719 116.132812 28.3125 115.730469 28.3125 C 115.6875 28.3125 115.648438 28.308594 115.605469 28.304688 L 113.765625 28.027344 C 112.910156 27.910156 112.296875 27.101562 112.398438 26.21875 Z M 112.46875 25.625 " fill-opacity="1" fill-rule="nonzero"/><path fill="#101010" d="M 114.367188 31.898438 C 114.386719 31.867188 116.769531 28.335938 117.445312 27.902344 L 117.453125 27.898438 L 117.457031 27.890625 C 117.683594 27.667969 118.171875 26.683594 118.699219 25.605469 C 119.925781 23.101562 120.875 21.28125 121.980469 20.660156 C 122.289062 20.484375 124.097656 20.273438 126.695312 20.101562 L 126.742188 20.101562 C 126.769531 20.097656 126.796875 20.097656 126.820312 20.097656 C 127.265625 20.097656 127.628906 20.460938 127.628906 20.90625 C 127.628906 21.351562 127.265625 21.710938 126.820312 21.714844 L 126.816406 21.714844 C 124.660156 21.816406 123.082031 21.964844 122.789062 22.09375 L 122.777344 22.101562 C 122.640625 22.183594 122.253906 22.488281 121.59375 23.605469 C 121.109375 24.429688 120.613281 25.4375 120.179688 26.328125 C 119.894531 26.910156 119.644531 27.421875 119.421875 27.839844 L 119.367188 27.941406 L 134.070312 27.941406 C 134.523438 27.941406 134.890625 28.308594 134.890625 28.761719 C 134.890625 29.21875 134.523438 29.585938 134.070312 29.585938 L 118.109375 29.585938 C 118.035156 29.585938 117.921875 29.640625 117.59375 30.039062 C 117.402344 30.269531 117.160156 30.59375 116.867188 31.003906 C 116.414062 31.648438 115.964844 32.324219 115.792969 32.585938 L 115.78125 32.601562 C 115.746094 32.660156 115.660156 32.789062 115.601562 33.398438 C 115.527344 34.175781 115.527344 35.453125 115.601562 37.1875 C 115.671875 38.886719 115.800781 40.527344 115.871094 41.355469 L 115.875 41.414062 L 124.335938 41.523438 L 124.839844 38.984375 C 124.984375 37.867188 125.910156 37.027344 126.996094 37.027344 L 134.304688 37.03125 C 134.757812 37.03125 135.128906 37.402344 135.128906 37.855469 C 135.128906 38.308594 134.757812 38.679688 134.304688 38.679688 L 126.996094 38.675781 C 126.738281 38.675781 126.515625 38.894531 126.476562 39.1875 L 126.476562 39.191406 L 125.996094 41.546875 L 131.769531 41.546875 C 132.210938 41.546875 132.570312 41.90625 132.570312 42.347656 C 132.570312 42.789062 132.210938 43.148438 131.769531 43.148438 L 122.523438 43.148438 L 122.523438 44.957031 C 122.523438 45.410156 122.152344 45.777344 121.699219 45.777344 L 115.136719 45.777344 C 114.683594 45.777344 114.316406 45.410156 114.316406 44.957031 L 114.316406 42.382812 L 114.3125 42.378906 C 114.308594 42.351562 114.304688 42.328125 114.304688 42.308594 C 114.300781 42.285156 114.058594 39.800781 113.953125 37.148438 C 113.789062 33.144531 114.066406 32.359375 114.367188 31.898438 Z M 115.960938 44.132812 L 120.878906 44.132812 L 120.878906 43.125 L 115.960938 43.0625 Z M 115.960938 44.132812 " fill-opacity="1" fill-rule="nonzero"/><path fill="#101010" d="M 138.136719 41.546875 L 138.835938 41.546875 L 138.457031 39.683594 C 138.445312 39.628906 138.441406 39.574219 138.441406 39.519531 C 138.441406 39.066406 138.8125 38.695312 139.265625 38.695312 C 139.679688 38.695312 140.03125 39.003906 140.082031 39.417969 L 140.085938 39.425781 L 140.492188 41.523438 L 148.953125 41.414062 L 148.960938 41.355469 C 149.046875 40.34375 149.160156 38.800781 149.230469 37.191406 C 149.300781 35.480469 149.304688 34.214844 149.234375 33.4375 C 149.179688 32.828125 149.097656 32.6875 149.058594 32.621094 C 149.039062 32.589844 148.558594 31.835938 148.035156 31.089844 C 147.734375 30.660156 147.480469 30.316406 147.277344 30.070312 C 146.925781 29.644531 146.800781 29.585938 146.722656 29.585938 L 139.726562 29.585938 C 139.273438 29.585938 138.90625 29.21875 138.90625 28.765625 C 138.90625 28.308594 139.273438 27.941406 139.726562 27.941406 L 145.460938 27.941406 L 145.410156 27.84375 C 145.1875 27.425781 144.933594 26.910156 144.652344 26.328125 C 144.214844 25.4375 143.722656 24.429688 143.234375 23.609375 C 142.574219 22.492188 142.191406 22.183594 142.054688 22.101562 L 142.042969 22.097656 C 141.667969 21.933594 139.007812 21.710938 135.199219 21.625 L 135.195312 21.625 C 134.742188 21.625 134.371094 21.257812 134.371094 20.804688 C 134.371094 20.355469 134.722656 19.996094 135.164062 19.980469 L 135.171875 19.980469 C 135.175781 19.980469 135.183594 19.980469 135.191406 19.980469 L 135.195312 19.980469 C 135.210938 19.980469 135.222656 19.980469 135.238281 19.980469 L 135.242188 19.980469 C 136.355469 20.011719 137.253906 20.046875 137.984375 20.09375 C 140.628906 20.261719 142.539062 20.484375 142.851562 20.660156 C 143.953125 21.28125 144.90625 23.101562 146.128906 25.605469 C 146.65625 26.683594 147.148438 27.671875 147.371094 27.894531 L 147.378906 27.902344 L 147.386719 27.90625 C 148.097656 28.277344 150.339844 31.703125 150.433594 31.847656 L 150.4375 31.851562 C 150.738281 32.308594 151.042969 33.132812 150.878906 37.152344 C 150.773438 39.796875 150.527344 42.285156 150.527344 42.308594 C 150.523438 42.332031 150.519531 42.351562 150.515625 42.378906 L 150.515625 44.957031 C 150.515625 45.410156 150.144531 45.78125 149.691406 45.78125 L 143.128906 45.78125 C 142.675781 45.78125 142.308594 45.410156 142.308594 44.957031 L 142.308594 43.148438 L 138.136719 43.148438 C 137.695312 43.148438 137.335938 42.789062 137.335938 42.347656 C 137.335938 41.90625 137.695312 41.546875 138.136719 41.546875 Z M 143.953125 44.132812 L 148.867188 44.132812 L 148.867188 43.0625 L 143.953125 43.125 Z M 143.953125 44.132812 " fill-opacity="1" fill-rule="nonzero"/><g clip-path="url(#32c737481a)"><path fill="#101010" d="M 100.457031 66.515625 L 109.351562 49.769531 C 109.675781 49.160156 110.414062 48.917969 111.035156 49.222656 L 112.367188 49.871094 L 112.992188 48.585938 C 111.199219 47.605469 109.613281 46.332031 108.277344 44.796875 C 106.8125 43.117188 105.703125 41.191406 104.972656 39.078125 C 104.246094 36.960938 103.9375 34.757812 104.058594 32.535156 C 104.179688 30.230469 104.761719 28 105.78125 25.910156 C 106.800781 23.820312 108.199219 21.988281 109.941406 20.472656 C 111.621094 19.011719 113.546875 17.898438 115.664062 17.171875 C 117.777344 16.441406 119.980469 16.132812 122.203125 16.253906 C 124.507812 16.378906 126.738281 16.957031 128.828125 17.976562 C 130.917969 18.996094 132.75 20.398438 134.265625 22.136719 C 135.726562 23.816406 136.839844 25.742188 137.566406 27.859375 C 138.296875 29.976562 138.605469 32.175781 138.484375 34.402344 C 138.359375 36.707031 137.78125 38.933594 136.761719 41.023438 C 135.742188 43.117188 134.339844 44.945312 132.601562 46.460938 C 130.921875 47.925781 128.996094 49.035156 126.878906 49.765625 C 125.0625 50.390625 123.175781 50.707031 121.269531 50.707031 C 120.960938 50.707031 120.644531 50.699219 120.335938 50.679688 C 118.304688 50.570312 116.324219 50.105469 114.449219 49.296875 L 113.824219 50.582031 L 115.152344 51.230469 C 115.773438 51.535156 116.039062 52.265625 115.757812 52.894531 L 108.03125 70.210938 C 107.828125 70.667969 107.371094 70.964844 106.867188 70.964844 C 106.746094 70.964844 106.628906 70.949219 106.515625 70.914062 C 105.917969 70.742188 104.734375 70.367188 103.550781 69.789062 C 102.363281 69.210938 101.339844 68.507812 100.835938 68.144531 C 100.324219 67.773438 100.164062 67.074219 100.457031 66.515625 Z M 114.425781 47.5 C 116.585938 48.554688 118.886719 49.089844 121.257812 49.089844 C 122.984375 49.089844 124.699219 48.800781 126.351562 48.234375 C 130.296875 46.875 133.476562 44.0625 135.304688 40.316406 C 137.132812 36.566406 137.394531 32.332031 136.035156 28.386719 C 134.679688 24.441406 131.867188 21.265625 128.117188 19.433594 C 125.957031 18.378906 123.65625 17.84375 121.285156 17.84375 C 119.558594 17.84375 117.84375 18.132812 116.191406 18.703125 C 112.246094 20.0625 109.066406 22.871094 107.238281 26.621094 C 105.410156 30.371094 105.148438 34.605469 106.507812 38.550781 C 107.863281 42.492188 110.675781 45.671875 114.425781 47.5 Z M 104.261719 68.332031 C 105.152344 68.769531 106.050781 69.078125 106.675781 69.273438 L 114.140625 52.539062 L 110.625 50.824219 L 102.03125 67.007812 C 102.566406 67.378906 103.367188 67.894531 104.261719 68.332031 Z M 104.261719 68.332031 " fill-opacity="1" fill-rule="nonzero"/></g></svg>