<svg xmlns="http://www.w3.org/2000/svg" xmlns:xlink="http://www.w3.org/1999/xlink" width="400" zoomAndPan="magnify" viewBox="0 0 300 74.999997" height="100" preserveAspectRatio="xMidYMid meet" version="1.0"><defs><g/><clipPath id="71de136654"><path d="M 100.136719 24.238281 L 130.136719 24.238281 L 130.136719 54.238281 L 100.136719 54.238281 Z M 100.136719 24.238281 " clip-rule="nonzero"/></clipPath></defs><g fill="#374440" fill-opacity="1"><g transform="translate(13.260193, 53.249995)"><g><path d="M 23.6875 -6.765625 C 23.976562 -6.066406 24.382812 -5.398438 24.90625 -4.765625 C 25.4375 -4.128906 25.894531 -3.65625 26.28125 -3.34375 C 25.707031 -2.144531 25 -1.269531 24.15625 -0.71875 C 23.457031 -0.257812 22.710938 0.00390625 21.921875 0.078125 C 21.492188 0.117188 21.003906 0.0820312 20.453125 -0.03125 C 19.898438 -0.15625 19.328125 -0.5 18.734375 -1.0625 C 18.148438 -1.625 17.566406 -2.53125 16.984375 -3.78125 C 16.816406 -4.1875 16.445312 -4.472656 15.875 -4.640625 C 15.300781 -4.804688 14.6875 -4.90625 14.03125 -4.9375 C 13.382812 -4.976562 12.859375 -5 12.453125 -5 C 12.046875 -5 11.546875 -4.988281 10.953125 -4.96875 C 10.367188 -4.945312 9.835938 -4.847656 9.359375 -4.671875 C 8.878906 -4.503906 8.59375 -4.207031 8.5 -3.78125 C 8.40625 -3.394531 8.390625 -3 8.453125 -2.59375 C 8.523438 -2.1875 8.679688 -1.921875 8.921875 -1.796875 C 8.515625 -1.410156 8.113281 -1.070312 7.71875 -0.78125 C 7.320312 -0.5 6.921875 -0.273438 6.515625 -0.109375 C 6.015625 0.109375 5.492188 0.21875 4.953125 0.21875 C 4.410156 0.21875 3.800781 0.0976562 3.125 -0.140625 C 2.8125 -0.265625 2.488281 -0.484375 2.15625 -0.796875 C 1.820312 -1.109375 1.59375 -1.539062 1.46875 -2.09375 C 1.351562 -2.644531 1.453125 -3.335938 1.765625 -4.171875 C 1.785156 -4.242188 1.90625 -4.628906 2.125 -5.328125 C 2.34375 -6.023438 2.625 -6.941406 2.96875 -8.078125 C 3.3125 -9.222656 3.691406 -10.488281 4.109375 -11.875 C 4.535156 -13.269531 4.96875 -14.703125 5.40625 -16.171875 C 5.851562 -17.648438 6.285156 -19.070312 6.703125 -20.4375 C 7.128906 -21.8125 7.507812 -23.050781 7.84375 -24.15625 C 8.1875 -25.257812 8.453125 -26.132812 8.640625 -26.78125 C 8.828125 -27.425781 8.921875 -27.75 8.921875 -27.75 C 9.140625 -27.875 9.539062 -28.023438 10.125 -28.203125 C 10.71875 -28.378906 11.351562 -28.484375 12.03125 -28.515625 C 12.769531 -28.554688 13.492188 -28.457031 14.203125 -28.21875 C 14.910156 -27.976562 15.457031 -27.5 15.84375 -26.78125 C 16.007812 -26.5 16.257812 -25.945312 16.59375 -25.125 C 16.925781 -24.3125 17.320312 -23.328125 17.78125 -22.171875 C 18.238281 -21.023438 18.71875 -19.796875 19.21875 -18.484375 C 19.726562 -17.179688 20.226562 -15.882812 20.71875 -14.59375 C 21.207031 -13.3125 21.65625 -12.117188 22.0625 -11.015625 C 22.476562 -9.910156 22.828125 -8.976562 23.109375 -8.21875 C 23.398438 -7.46875 23.59375 -6.984375 23.6875 -6.765625 Z M 12.34375 -11.40625 C 12.96875 -11.457031 13.332031 -11.640625 13.4375 -11.953125 C 13.550781 -12.265625 13.617188 -12.625 13.640625 -13.03125 C 13.640625 -13.289062 13.597656 -13.613281 13.515625 -14 C 13.429688 -14.382812 13.3125 -14.726562 13.15625 -15.03125 C 13 -15.332031 12.800781 -15.484375 12.5625 -15.484375 C 12.226562 -15.484375 11.863281 -15.25 11.46875 -14.78125 C 11.070312 -14.3125 10.847656 -13.835938 10.796875 -13.359375 C 10.722656 -12.898438 10.765625 -12.453125 10.921875 -12.015625 C 11.078125 -11.585938 11.550781 -11.382812 12.34375 -11.40625 Z M 12.34375 -11.40625 "/></g></g></g><g fill="#374440" fill-opacity="1"><g transform="translate(45.516241, 53.249995)"><g><path d="M 22.5 -25.15625 C 22.550781 -24.613281 22.617188 -23.722656 22.703125 -22.484375 C 22.785156 -21.242188 22.847656 -19.816406 22.890625 -18.203125 C 22.941406 -16.597656 22.960938 -14.953125 22.953125 -13.265625 C 22.941406 -11.578125 22.878906 -9.972656 22.765625 -8.453125 C 22.660156 -6.941406 22.476562 -5.6875 22.21875 -4.6875 C 21.78125 -3.03125 20.578125 -1.753906 18.609375 -0.859375 C 16.640625 0.0234375 14.171875 0.46875 11.203125 0.46875 C 9.203125 0.46875 7.503906 0.0976562 6.109375 -0.640625 C 4.722656 -1.390625 3.648438 -2.414062 2.890625 -3.71875 C 2.140625 -5.03125 1.71875 -6.539062 1.625 -8.25 C 1.570312 -9.082031 1.53125 -10.148438 1.5 -11.453125 C 1.476562 -12.765625 1.460938 -14.179688 1.453125 -15.703125 C 1.441406 -17.234375 1.4375 -18.742188 1.4375 -20.234375 C 1.4375 -21.722656 1.441406 -23.082031 1.453125 -24.3125 C 1.460938 -25.550781 1.46875 -26.539062 1.46875 -27.28125 C 1.46875 -28.03125 1.46875 -28.40625 1.46875 -28.40625 C 1.738281 -28.445312 2.203125 -28.457031 2.859375 -28.4375 C 3.523438 -28.414062 4.21875 -28.304688 4.9375 -28.109375 C 5.75 -27.921875 6.492188 -27.597656 7.171875 -27.140625 C 7.859375 -26.679688 8.253906 -26.019531 8.359375 -25.15625 C 8.421875 -24.4375 8.421875 -23.363281 8.359375 -21.9375 C 8.304688 -20.507812 8.257812 -18.878906 8.21875 -17.046875 C 8.1875 -15.210938 8.234375 -13.3125 8.359375 -11.34375 C 8.378906 -10.9375 8.390625 -10.46875 8.390625 -9.9375 C 8.390625 -9.40625 8.46875 -8.882812 8.625 -8.375 C 8.78125 -7.875 9.101562 -7.457031 9.59375 -7.125 C 10.082031 -6.789062 10.84375 -6.625 11.875 -6.625 C 12.90625 -6.625 13.691406 -6.765625 14.234375 -7.046875 C 14.773438 -7.335938 15.164062 -7.734375 15.40625 -8.234375 C 15.644531 -8.742188 15.796875 -9.332031 15.859375 -10 C 15.921875 -10.675781 15.972656 -11.398438 16.015625 -12.171875 C 16.066406 -12.671875 16.085938 -13.410156 16.078125 -14.390625 C 16.066406 -15.378906 16.046875 -16.484375 16.015625 -17.703125 C 15.992188 -18.929688 15.957031 -20.171875 15.90625 -21.421875 C 15.863281 -22.671875 15.816406 -23.820312 15.765625 -24.875 C 15.722656 -25.925781 15.6875 -26.773438 15.65625 -27.421875 C 15.632812 -28.078125 15.625 -28.40625 15.625 -28.40625 C 15.882812 -28.445312 16.34375 -28.457031 17 -28.4375 C 17.664062 -28.414062 18.367188 -28.304688 19.109375 -28.109375 C 19.929688 -27.921875 20.675781 -27.59375 21.34375 -27.125 C 22.019531 -26.65625 22.40625 -26 22.5 -25.15625 Z M 22.5 -25.15625 "/></g></g></g><g fill="#374440" fill-opacity="1"><g transform="translate(74.424287, 53.249995)"><g><path d="M 24.515625 -28.984375 C 24.804688 -28.742188 25.015625 -28.273438 25.140625 -27.578125 C 25.273438 -26.878906 25.328125 -26.128906 25.296875 -25.328125 C 25.273438 -24.523438 25.15625 -23.804688 24.9375 -23.171875 C 24.726562 -22.535156 24.421875 -22.15625 24.015625 -22.03125 C 23.847656 -21.976562 23.503906 -21.910156 22.984375 -21.828125 C 22.472656 -21.742188 22 -21.644531 21.5625 -21.53125 C 21.15625 -21.40625 20.613281 -21.195312 19.9375 -20.90625 C 19.269531 -20.625 18.695312 -20.207031 18.21875 -19.65625 C 17.832031 -19.195312 17.519531 -18.722656 17.28125 -18.234375 C 17.039062 -17.742188 16.910156 -17.113281 16.890625 -16.34375 C 16.859375 -16.03125 16.84375 -15.445312 16.84375 -14.59375 C 16.84375 -13.738281 16.84375 -12.753906 16.84375 -11.640625 C 16.84375 -10.523438 16.847656 -9.425781 16.859375 -8.34375 C 16.878906 -7.269531 16.890625 -6.347656 16.890625 -5.578125 C 16.890625 -4.804688 16.890625 -4.351562 16.890625 -4.21875 C 16.859375 -3.488281 16.925781 -2.875 17.09375 -2.375 C 17.269531 -1.875 17.453125 -1.570312 17.640625 -1.46875 C 17.035156 -1.019531 16.4375 -0.640625 15.84375 -0.328125 C 15.257812 -0.015625 14.429688 0.210938 13.359375 0.359375 C 12.953125 0.410156 12.492188 0.296875 11.984375 0.015625 C 11.484375 -0.253906 11.046875 -0.679688 10.671875 -1.265625 C 10.296875 -1.859375 10.097656 -2.585938 10.078125 -3.453125 C 10.078125 -4.316406 10.070312 -5.425781 10.0625 -6.78125 C 10.050781 -8.132812 10.050781 -9.609375 10.0625 -11.203125 C 10.070312 -12.804688 10.066406 -14.410156 10.046875 -16.015625 C 10.023438 -16.710938 9.921875 -17.375 9.734375 -18 C 9.554688 -18.625 9.265625 -19.164062 8.859375 -19.625 C 8.453125 -20.101562 7.910156 -20.5 7.234375 -20.8125 C 6.566406 -21.125 5.726562 -21.328125 4.71875 -21.421875 C 4.445312 -21.441406 4.082031 -21.507812 3.625 -21.625 C 3.175781 -21.75 2.867188 -21.875 2.703125 -22 C 2.429688 -22.1875 2.210938 -22.550781 2.046875 -23.09375 C 1.878906 -23.632812 1.75 -24.234375 1.65625 -24.890625 C 1.5625 -25.554688 1.492188 -26.210938 1.453125 -26.859375 C 1.421875 -27.503906 1.414062 -28.03125 1.4375 -28.4375 C 1.53125 -28.414062 1.800781 -28.378906 2.25 -28.328125 C 2.695312 -28.285156 3.226562 -28.242188 3.84375 -28.203125 C 4.46875 -28.171875 5.082031 -28.140625 5.6875 -28.109375 C 6.125 -28.085938 6.707031 -28.066406 7.4375 -28.046875 C 8.164062 -28.023438 8.945312 -28 9.78125 -27.96875 C 10.625 -27.945312 11.414062 -27.929688 12.15625 -27.921875 C 12.90625 -27.910156 13.519531 -27.90625 14 -27.90625 C 14.644531 -27.925781 15.398438 -27.945312 16.265625 -27.96875 C 17.128906 -28 17.960938 -28.03125 18.765625 -28.0625 C 19.578125 -28.09375 20.222656 -28.132812 20.703125 -28.1875 C 21.179688 -28.238281 21.691406 -28.304688 22.234375 -28.390625 C 22.773438 -28.472656 23.253906 -28.566406 23.671875 -28.671875 C 24.085938 -28.785156 24.367188 -28.890625 24.515625 -28.984375 Z M 24.515625 -28.984375 "/></g></g></g><g fill="#374440" fill-opacity="1"><g transform="translate(105.709404, 53.249995)"><g/></g></g><g fill="#374440" fill-opacity="1"><g transform="translate(124.645435, 53.249995)"><g/></g></g><g fill="#374440" fill-opacity="1"><g transform="translate(143.584405, 53.249995)"><g><path d="M 24.515625 -28.984375 C 24.804688 -28.742188 25.015625 -28.273438 25.140625 -27.578125 C 25.273438 -26.878906 25.328125 -26.128906 25.296875 -25.328125 C 25.273438 -24.523438 25.15625 -23.804688 24.9375 -23.171875 C 24.726562 -22.535156 24.421875 -22.15625 24.015625 -22.03125 C 23.847656 -21.976562 23.503906 -21.910156 22.984375 -21.828125 C 22.472656 -21.742188 22 -21.644531 21.5625 -21.53125 C 21.15625 -21.40625 20.613281 -21.195312 19.9375 -20.90625 C 19.269531 -20.625 18.695312 -20.207031 18.21875 -19.65625 C 17.832031 -19.195312 17.519531 -18.722656 17.28125 -18.234375 C 17.039062 -17.742188 16.910156 -17.113281 16.890625 -16.34375 C 16.859375 -16.03125 16.84375 -15.445312 16.84375 -14.59375 C 16.84375 -13.738281 16.84375 -12.753906 16.84375 -11.640625 C 16.84375 -10.523438 16.847656 -9.425781 16.859375 -8.34375 C 16.878906 -7.269531 16.890625 -6.347656 16.890625 -5.578125 C 16.890625 -4.804688 16.890625 -4.351562 16.890625 -4.21875 C 16.859375 -3.488281 16.925781 -2.875 17.09375 -2.375 C 17.269531 -1.875 17.453125 -1.570312 17.640625 -1.46875 C 17.035156 -1.019531 16.4375 -0.640625 15.84375 -0.328125 C 15.257812 -0.015625 14.429688 0.210938 13.359375 0.359375 C 12.953125 0.410156 12.492188 0.296875 11.984375 0.015625 C 11.484375 -0.253906 11.046875 -0.679688 10.671875 -1.265625 C 10.296875 -1.859375 10.097656 -2.585938 10.078125 -3.453125 C 10.078125 -4.316406 10.070312 -5.425781 10.0625 -6.78125 C 10.050781 -8.132812 10.050781 -9.609375 10.0625 -11.203125 C 10.070312 -12.804688 10.066406 -14.410156 10.046875 -16.015625 C 10.023438 -16.710938 9.921875 -17.375 9.734375 -18 C 9.554688 -18.625 9.265625 -19.164062 8.859375 -19.625 C 8.453125 -20.101562 7.910156 -20.5 7.234375 -20.8125 C 6.566406 -21.125 5.726562 -21.328125 4.71875 -21.421875 C 4.445312 -21.441406 4.082031 -21.507812 3.625 -21.625 C 3.175781 -21.75 2.867188 -21.875 2.703125 -22 C 2.429688 -22.1875 2.210938 -22.550781 2.046875 -23.09375 C 1.878906 -23.632812 1.75 -24.234375 1.65625 -24.890625 C 1.5625 -25.554688 1.492188 -26.210938 1.453125 -26.859375 C 1.421875 -27.503906 1.414062 -28.03125 1.4375 -28.4375 C 1.53125 -28.414062 1.800781 -28.378906 2.25 -28.328125 C 2.695312 -28.285156 3.226562 -28.242188 3.84375 -28.203125 C 4.46875 -28.171875 5.082031 -28.140625 5.6875 -28.109375 C 6.125 -28.085938 6.707031 -28.066406 7.4375 -28.046875 C 8.164062 -28.023438 8.945312 -28 9.78125 -27.96875 C 10.625 -27.945312 11.414062 -27.929688 12.15625 -27.921875 C 12.90625 -27.910156 13.519531 -27.90625 14 -27.90625 C 14.644531 -27.925781 15.398438 -27.945312 16.265625 -27.96875 C 17.128906 -28 17.960938 -28.03125 18.765625 -28.0625 C 19.578125 -28.09375 20.222656 -28.132812 20.703125 -28.1875 C 21.179688 -28.238281 21.691406 -28.304688 22.234375 -28.390625 C 22.773438 -28.472656 23.253906 -28.566406 23.671875 -28.671875 C 24.085938 -28.785156 24.367188 -28.890625 24.515625 -28.984375 Z M 24.515625 -28.984375 "/></g></g></g><g fill="#374440" fill-opacity="1"><g transform="translate(174.86846, 53.249995)"><g><path d="M 21.28125 -11.40625 C 21.175781 -11.382812 21.035156 -11.253906 20.859375 -11.015625 C 20.679688 -10.773438 20.554688 -10.523438 20.484375 -10.265625 C 20.359375 -9.878906 20.394531 -9.566406 20.59375 -9.328125 C 21.09375 -8.722656 21.738281 -8.019531 22.53125 -7.21875 C 23.320312 -6.414062 24.117188 -5.65625 24.921875 -4.9375 C 25.734375 -4.21875 26.425781 -3.664062 27 -3.28125 C 26.570312 -2.125 25.894531 -1.203125 24.96875 -0.515625 C 24.039062 0.160156 23.015625 0.488281 21.890625 0.46875 C 20.765625 0.445312 19.660156 -0.0546875 18.578125 -1.046875 C 18.429688 -1.191406 18.15625 -1.507812 17.75 -2 C 17.34375 -2.488281 16.875 -3.066406 16.34375 -3.734375 C 15.8125 -4.410156 15.28125 -5.082031 14.75 -5.75 C 14.226562 -6.425781 13.773438 -7.015625 13.390625 -7.515625 C 13.003906 -8.023438 12.765625 -8.335938 12.671875 -8.453125 C 12.210938 -9.054688 11.78125 -9.191406 11.375 -8.859375 C 10.96875 -8.523438 10.71875 -7.828125 10.625 -6.765625 C 10.570312 -6.140625 10.578125 -5.425781 10.640625 -4.625 C 10.703125 -3.820312 10.796875 -3.109375 10.921875 -2.484375 C 11.054688 -1.859375 11.195312 -1.488281 11.34375 -1.375 C 10.832031 -0.988281 10.207031 -0.625 9.46875 -0.28125 C 8.726562 0.0507812 7.875 0.253906 6.90625 0.328125 C 6.550781 0.347656 6.132812 0.25 5.65625 0.03125 C 5.175781 -0.175781 4.757812 -0.523438 4.40625 -1.015625 C 4.0625 -1.515625 3.878906 -2.132812 3.859375 -2.875 C 3.859375 -3.070312 3.847656 -3.578125 3.828125 -4.390625 C 3.816406 -5.203125 3.804688 -6.203125 3.796875 -7.390625 C 3.785156 -8.585938 3.78125 -9.820312 3.78125 -11.09375 C 3.78125 -12.363281 3.773438 -13.5625 3.765625 -14.6875 C 3.753906 -15.8125 3.75 -16.722656 3.75 -17.421875 C 3.75 -18.117188 3.75 -18.46875 3.75 -18.46875 C 3.75 -19.882812 3.710938 -21.066406 3.640625 -22.015625 C 3.566406 -22.960938 3.273438 -23.6875 2.765625 -24.1875 C 2.316406 -24.644531 1.976562 -25.304688 1.75 -26.171875 C 1.519531 -27.035156 1.414062 -27.851562 1.4375 -28.625 C 1.53125 -28.59375 1.816406 -28.554688 2.296875 -28.515625 C 2.785156 -28.484375 3.253906 -28.445312 3.703125 -28.40625 C 4.015625 -28.40625 4.460938 -28.410156 5.046875 -28.421875 C 5.640625 -28.429688 6.269531 -28.445312 6.9375 -28.46875 C 7.613281 -28.5 8.238281 -28.519531 8.8125 -28.53125 C 9.394531 -28.539062 9.828125 -28.554688 10.109375 -28.578125 C 10.328125 -28.578125 10.726562 -28.582031 11.3125 -28.59375 C 11.90625 -28.613281 12.597656 -28.625 13.390625 -28.625 C 14.179688 -28.625 14.984375 -28.613281 15.796875 -28.59375 C 16.617188 -28.582031 17.375 -28.550781 18.0625 -28.5 C 18.757812 -28.457031 19.300781 -28.398438 19.6875 -28.328125 C 21.269531 -28.046875 22.492188 -27.519531 23.359375 -26.75 C 24.222656 -25.976562 24.84375 -25.050781 25.21875 -23.96875 C 25.59375 -22.894531 25.816406 -21.722656 25.890625 -20.453125 C 25.929688 -19.367188 25.804688 -18.238281 25.515625 -17.0625 C 25.234375 -15.882812 24.742188 -14.789062 24.046875 -13.78125 C 23.347656 -12.78125 22.425781 -11.988281 21.28125 -11.40625 Z M 10.6875 -19.15625 C 10.6875 -18.382812 10.863281 -17.8125 11.21875 -17.4375 C 11.582031 -17.070312 11.921875 -16.851562 12.234375 -16.78125 C 12.671875 -16.675781 13.222656 -16.664062 13.890625 -16.75 C 14.566406 -16.84375 15.238281 -17.015625 15.90625 -17.265625 C 16.582031 -17.515625 17.15625 -17.84375 17.625 -18.25 C 18.09375 -18.65625 18.328125 -19.125 18.328125 -19.65625 C 18.328125 -20.351562 18.035156 -20.882812 17.453125 -21.25 C 16.878906 -21.625 16.15625 -21.859375 15.28125 -21.953125 C 14.40625 -22.054688 13.535156 -22.035156 12.671875 -21.890625 C 11.992188 -21.796875 11.488281 -21.492188 11.15625 -20.984375 C 10.820312 -20.484375 10.664062 -19.875 10.6875 -19.15625 Z M 10.6875 -19.15625 "/></g></g></g><g fill="#374440" fill-opacity="1"><g transform="translate(207.844514, 53.249995)"><g><path d="M 23.6875 -6.765625 C 23.976562 -6.066406 24.382812 -5.398438 24.90625 -4.765625 C 25.4375 -4.128906 25.894531 -3.65625 26.28125 -3.34375 C 25.707031 -2.144531 25 -1.269531 24.15625 -0.71875 C 23.457031 -0.257812 22.710938 0.00390625 21.921875 0.078125 C 21.492188 0.117188 21.003906 0.0820312 20.453125 -0.03125 C 19.898438 -0.15625 19.328125 -0.5 18.734375 -1.0625 C 18.148438 -1.625 17.566406 -2.53125 16.984375 -3.78125 C 16.816406 -4.1875 16.445312 -4.472656 15.875 -4.640625 C 15.300781 -4.804688 14.6875 -4.90625 14.03125 -4.9375 C 13.382812 -4.976562 12.859375 -5 12.453125 -5 C 12.046875 -5 11.546875 -4.988281 10.953125 -4.96875 C 10.367188 -4.945312 9.835938 -4.847656 9.359375 -4.671875 C 8.878906 -4.503906 8.59375 -4.207031 8.5 -3.78125 C 8.40625 -3.394531 8.390625 -3 8.453125 -2.59375 C 8.523438 -2.1875 8.679688 -1.921875 8.921875 -1.796875 C 8.515625 -1.410156 8.113281 -1.070312 7.71875 -0.78125 C 7.320312 -0.5 6.921875 -0.273438 6.515625 -0.109375 C 6.015625 0.109375 5.492188 0.21875 4.953125 0.21875 C 4.410156 0.21875 3.800781 0.0976562 3.125 -0.140625 C 2.8125 -0.265625 2.488281 -0.484375 2.15625 -0.796875 C 1.820312 -1.109375 1.59375 -1.539062 1.46875 -2.09375 C 1.351562 -2.644531 1.453125 -3.335938 1.765625 -4.171875 C 1.785156 -4.242188 1.90625 -4.628906 2.125 -5.328125 C 2.34375 -6.023438 2.625 -6.941406 2.96875 -8.078125 C 3.3125 -9.222656 3.691406 -10.488281 4.109375 -11.875 C 4.535156 -13.269531 4.96875 -14.703125 5.40625 -16.171875 C 5.851562 -17.648438 6.285156 -19.070312 6.703125 -20.4375 C 7.128906 -21.8125 7.507812 -23.050781 7.84375 -24.15625 C 8.1875 -25.257812 8.453125 -26.132812 8.640625 -26.78125 C 8.828125 -27.425781 8.921875 -27.75 8.921875 -27.75 C 9.140625 -27.875 9.539062 -28.023438 10.125 -28.203125 C 10.71875 -28.378906 11.351562 -28.484375 12.03125 -28.515625 C 12.769531 -28.554688 13.492188 -28.457031 14.203125 -28.21875 C 14.910156 -27.976562 15.457031 -27.5 15.84375 -26.78125 C 16.007812 -26.5 16.257812 -25.945312 16.59375 -25.125 C 16.925781 -24.3125 17.320312 -23.328125 17.78125 -22.171875 C 18.238281 -21.023438 18.71875 -19.796875 19.21875 -18.484375 C 19.726562 -17.179688 20.226562 -15.882812 20.71875 -14.59375 C 21.207031 -13.3125 21.65625 -12.117188 22.0625 -11.015625 C 22.476562 -9.910156 22.828125 -8.976562 23.109375 -8.21875 C 23.398438 -7.46875 23.59375 -6.984375 23.6875 -6.765625 Z M 12.34375 -11.40625 C 12.96875 -11.457031 13.332031 -11.640625 13.4375 -11.953125 C 13.550781 -12.265625 13.617188 -12.625 13.640625 -13.03125 C 13.640625 -13.289062 13.597656 -13.613281 13.515625 -14 C 13.429688 -14.382812 13.3125 -14.726562 13.15625 -15.03125 C 13 -15.332031 12.800781 -15.484375 12.5625 -15.484375 C 12.226562 -15.484375 11.863281 -15.25 11.46875 -14.78125 C 11.070312 -14.3125 10.847656 -13.835938 10.796875 -13.359375 C 10.722656 -12.898438 10.765625 -12.453125 10.921875 -12.015625 C 11.078125 -11.585938 11.550781 -11.382812 12.34375 -11.40625 Z M 12.34375 -11.40625 "/></g></g></g><g fill="#374440" fill-opacity="1"><g transform="translate(240.100559, 53.249995)"><g><path d="M 24.765625 -19.1875 C 24.890625 -18.46875 24.976562 -17.6875 25.03125 -16.84375 C 25.09375 -16.007812 25.085938 -15 25.015625 -13.8125 C 24.941406 -12.625 24.773438 -11.164062 24.515625 -9.4375 C 24.148438 -7.101562 23.203125 -5.148438 21.671875 -3.578125 C 20.140625 -2.003906 18.207031 -0.976562 15.875 -0.5 C 15.226562 -0.351562 14.472656 -0.25 13.609375 -0.1875 C 12.742188 -0.132812 11.882812 -0.0859375 11.03125 -0.046875 C 10.175781 -0.015625 9.414062 0.0234375 8.75 0.078125 C 8.144531 0.191406 7.421875 0.269531 6.578125 0.3125 C 5.742188 0.363281 4.953125 0.351562 4.203125 0.28125 C 3.460938 0.21875 2.925781 0.0859375 2.59375 -0.109375 C 2.78125 -0.441406 2.929688 -0.945312 3.046875 -1.625 C 3.171875 -2.3125 3.269531 -3.0625 3.34375 -3.875 C 3.414062 -4.695312 3.441406 -5.484375 3.421875 -6.234375 L 3.3125 -18.4375 C 3.3125 -19.414062 3.304688 -20.3125 3.296875 -21.125 C 3.285156 -21.945312 3.253906 -22.585938 3.203125 -23.046875 C 3.148438 -23.546875 2.960938 -23.988281 2.640625 -24.375 C 2.316406 -24.757812 2.082031 -25.144531 1.9375 -25.53125 C 1.5625 -26.582031 1.394531 -27.613281 1.4375 -28.625 C 1.5625 -28.59375 1.832031 -28.554688 2.25 -28.515625 C 2.664062 -28.484375 3.148438 -28.445312 3.703125 -28.40625 C 4.304688 -28.382812 5.25 -28.347656 6.53125 -28.296875 C 7.8125 -28.242188 9.125 -28.195312 10.46875 -28.15625 C 10.46875 -28.15625 10.664062 -28.144531 11.0625 -28.125 C 11.457031 -28.113281 11.957031 -28.082031 12.5625 -28.03125 C 13.164062 -27.988281 13.789062 -27.925781 14.4375 -27.84375 C 15.082031 -27.757812 15.644531 -27.660156 16.125 -27.546875 C 17.6875 -27.128906 19 -26.566406 20.0625 -25.859375 C 21.132812 -25.148438 22 -24.390625 22.65625 -23.578125 C 23.320312 -22.765625 23.820312 -21.96875 24.15625 -21.1875 C 24.488281 -20.40625 24.691406 -19.738281 24.765625 -19.1875 Z M 12.203125 -6.84375 C 13.191406 -7.082031 14.125 -7.554688 15 -8.265625 C 15.875 -8.972656 16.566406 -9.929688 17.078125 -11.140625 C 17.597656 -12.347656 17.785156 -13.832031 17.640625 -15.59375 C 17.472656 -17.875 16.878906 -19.457031 15.859375 -20.34375 C 14.835938 -21.226562 13.507812 -21.679688 11.875 -21.703125 C 11.425781 -21.734375 11.066406 -21.4375 10.796875 -20.8125 C 10.535156 -20.1875 10.359375 -19.175781 10.265625 -17.78125 C 10.210938 -16.875 10.171875 -16.195312 10.140625 -15.75 C 10.117188 -15.300781 10.113281 -14.929688 10.125 -14.640625 C 10.144531 -14.359375 10.140625 -13.988281 10.109375 -13.53125 C 10.109375 -13.53125 10.113281 -13.3125 10.125 -12.875 C 10.144531 -12.445312 10.175781 -11.914062 10.21875 -11.28125 C 10.269531 -10.644531 10.332031 -10 10.40625 -9.34375 C 10.476562 -8.6875 10.5625 -8.128906 10.65625 -7.671875 C 10.78125 -7.160156 11.007812 -6.875 11.34375 -6.8125 C 11.675781 -6.757812 11.960938 -6.769531 12.203125 -6.84375 Z M 12.203125 -6.84375 "/></g></g></g><g fill="#374440" fill-opacity="1"><g transform="translate(271.168611, 53.249995)"><g><path d="M 16.421875 -6.546875 C 16.753906 -6.597656 17.175781 -6.660156 17.6875 -6.734375 C 18.207031 -6.804688 18.703125 -6.894531 19.171875 -7 C 19.640625 -7.101562 19.957031 -7.226562 20.125 -7.375 C 20.4375 -7.113281 20.644531 -6.582031 20.75 -5.78125 C 20.863281 -4.976562 20.820312 -4.144531 20.625 -3.28125 C 20.476562 -2.53125 20.222656 -1.832031 19.859375 -1.1875 C 19.503906 -0.539062 18.992188 -0.144531 18.328125 0 C 17.742188 0.125 17.082031 0.195312 16.34375 0.21875 C 15.601562 0.238281 14.847656 0.238281 14.078125 0.21875 C 13.304688 0.195312 12.601562 0.171875 11.96875 0.140625 C 11.332031 0.117188 10.847656 0.109375 10.515625 0.109375 C 10.179688 0.109375 9.660156 0.113281 8.953125 0.125 C 8.242188 0.132812 7.625 0.15625 7.09375 0.1875 C 6.46875 0.25 5.78125 0.289062 5.03125 0.3125 C 4.289062 0.34375 3.609375 0.320312 2.984375 0.25 C 2.359375 0.175781 1.90625 0.0546875 1.625 -0.109375 C 1.789062 -0.441406 1.929688 -0.945312 2.046875 -1.625 C 2.171875 -2.3125 2.269531 -3.0625 2.34375 -3.875 C 2.414062 -4.695312 2.4375 -5.484375 2.40625 -6.234375 L 2.34375 -12.8125 L 2.34375 -15.875 C 2.34375 -16.738281 2.332031 -17.457031 2.3125 -18.03125 C 2.300781 -18.613281 2.296875 -18.925781 2.296875 -18.96875 C 2.296875 -19.757812 2.257812 -20.609375 2.1875 -21.515625 C 2.125 -22.429688 2.039062 -23.300781 1.9375 -24.125 C 1.84375 -24.957031 1.757812 -25.640625 1.6875 -26.171875 C 1.59375 -26.578125 1.519531 -26.976562 1.46875 -27.375 C 1.425781 -27.769531 1.414062 -28.125 1.4375 -28.4375 C 1.601562 -28.363281 2.0625 -28.296875 2.8125 -28.234375 C 3.570312 -28.179688 4.457031 -28.128906 5.46875 -28.078125 C 5.539062 -28.078125 5.890625 -28.070312 6.515625 -28.0625 C 7.140625 -28.050781 7.910156 -28.03125 8.828125 -28 C 9.753906 -27.976562 10.71875 -27.960938 11.71875 -27.953125 C 12.71875 -27.941406 13.625 -27.9375 14.4375 -27.9375 C 15.25 -27.9375 15.847656 -27.945312 16.234375 -27.96875 C 17.222656 -28.019531 18.054688 -28.097656 18.734375 -28.203125 C 19.421875 -28.316406 19.882812 -28.46875 20.125 -28.65625 C 20.414062 -28.414062 20.6875 -27.960938 20.9375 -27.296875 C 21.1875 -26.640625 21.320312 -25.953125 21.34375 -25.234375 C 21.34375 -24.535156 21.179688 -23.878906 20.859375 -23.265625 C 20.535156 -22.660156 19.953125 -22.25 19.109375 -22.03125 C 18.796875 -21.957031 18.3125 -21.894531 17.65625 -21.84375 C 17 -21.800781 16.363281 -21.773438 15.75 -21.765625 C 15.132812 -21.753906 14.695312 -21.757812 14.4375 -21.78125 C 13.6875 -21.851562 12.914062 -21.773438 12.125 -21.546875 C 11.332031 -21.316406 10.660156 -21.015625 10.109375 -20.640625 C 9.554688 -20.273438 9.269531 -19.875 9.25 -19.4375 C 9.226562 -19.03125 9.394531 -18.691406 9.75 -18.421875 C 10.113281 -18.160156 10.585938 -17.953125 11.171875 -17.796875 C 11.765625 -17.640625 12.394531 -17.535156 13.0625 -17.484375 C 13.738281 -17.441406 14.375 -17.429688 14.96875 -17.453125 C 15.457031 -17.503906 16.007812 -17.585938 16.625 -17.703125 C 17.25 -17.828125 17.632812 -17.953125 17.78125 -18.078125 C 18.09375 -17.804688 18.3125 -17.3125 18.4375 -16.59375 C 18.570312 -15.875 18.570312 -15.128906 18.4375 -14.359375 C 18.3125 -13.734375 18.066406 -13.15625 17.703125 -12.625 C 17.347656 -12.101562 16.847656 -11.75 16.203125 -11.5625 C 15.691406 -11.414062 15.253906 -11.320312 14.890625 -11.28125 C 14.535156 -11.25 14.359375 -11.234375 14.359375 -11.234375 C 12.941406 -11.234375 11.75 -10.984375 10.78125 -10.484375 C 9.8125 -9.992188 9.28125 -9.414062 9.1875 -8.75 C 9.082031 -8.175781 9.203125 -7.644531 9.546875 -7.15625 C 9.898438 -6.675781 10.414062 -6.414062 11.09375 -6.375 C 11.539062 -6.351562 12.117188 -6.347656 12.828125 -6.359375 C 13.535156 -6.367188 14.234375 -6.390625 14.921875 -6.421875 C 15.609375 -6.460938 16.109375 -6.503906 16.421875 -6.546875 Z M 16.421875 -6.546875 "/></g></g></g><g clip-path="url(#71de136654)"><path fill="#374440" d="M 125.746094 28.628906 C 122.910156 25.796875 119.144531 24.238281 115.136719 24.238281 C 111.132812 24.238281 107.363281 25.796875 104.53125 28.628906 C 101.699219 31.464844 100.136719 35.230469 100.136719 39.238281 C 100.136719 43.242188 101.699219 47.011719 104.53125 49.84375 C 107.363281 52.675781 111.132812 54.238281 115.136719 54.238281 C 119.144531 54.238281 122.910156 52.675781 125.746094 49.84375 C 128.578125 47.011719 130.136719 43.242188 130.136719 39.238281 C 130.136719 35.230469 128.578125 31.464844 125.746094 28.628906 Z M 127.5 40.28125 C 127.511719 40.289062 128.453125 40.777344 129.234375 42.03125 C 128.796875 44.242188 127.847656 46.273438 126.519531 47.992188 C 126.347656 46.746094 125.875 46.015625 125.847656 45.976562 C 125.753906 45.832031 125.558594 45.792969 125.414062 45.886719 C 125.269531 45.984375 125.226562 46.179688 125.320312 46.324219 C 125.328125 46.332031 125.894531 47.222656 125.949219 48.691406 C 124.5 50.347656 122.675781 51.667969 120.613281 52.519531 C 121.089844 51.351562 121.046875 50.472656 121.042969 50.429688 C 121.03125 50.257812 120.882812 50.125 120.710938 50.132812 C 120.535156 50.144531 120.402344 50.292969 120.414062 50.464844 C 120.414062 50.476562 120.460938 51.539062 119.765625 52.839844 C 118.3125 53.335938 116.757812 53.605469 115.136719 53.605469 C 114.492188 53.605469 113.859375 53.5625 113.238281 53.480469 C 114.238281 52.703125 114.636719 51.921875 114.65625 51.882812 C 114.734375 51.726562 114.671875 51.539062 114.515625 51.460938 C 114.359375 51.382812 114.171875 51.445312 114.089844 51.601562 C 114.085938 51.609375 113.597656 52.550781 112.34375 53.332031 C 110.132812 52.894531 108.101562 51.949219 106.378906 50.621094 C 107.628906 50.445312 108.359375 49.972656 108.398438 49.949219 C 108.542969 49.851562 108.582031 49.65625 108.488281 49.511719 C 108.390625 49.367188 108.195312 49.324219 108.050781 49.421875 C 108.039062 49.425781 107.152344 49.996094 105.683594 50.046875 C 104.027344 48.597656 102.707031 46.777344 101.855469 44.714844 C 102.820312 45.105469 103.582031 45.144531 103.847656 45.144531 C 103.902344 45.144531 103.9375 45.144531 103.945312 45.144531 C 104.117188 45.132812 104.25 44.984375 104.242188 44.808594 C 104.230469 44.636719 104.082031 44.503906 103.90625 44.511719 C 103.898438 44.511719 102.835938 44.558594 101.535156 43.867188 C 101.039062 42.414062 100.769531 40.855469 100.769531 39.238281 C 100.769531 38.59375 100.8125 37.957031 100.894531 37.335938 C 101.671875 38.335938 102.453125 38.734375 102.492188 38.753906 C 102.535156 38.777344 102.585938 38.789062 102.632812 38.789062 C 102.746094 38.789062 102.859375 38.726562 102.914062 38.613281 C 102.992188 38.460938 102.929688 38.269531 102.773438 38.191406 C 102.765625 38.1875 101.824219 37.695312 101.042969 36.445312 C 101.480469 34.234375 102.425781 32.203125 103.753906 30.480469 C 103.929688 31.726562 104.402344 32.460938 104.425781 32.496094 C 104.488281 32.589844 104.585938 32.636719 104.691406 32.636719 C 104.75 32.636719 104.808594 32.621094 104.863281 32.585938 C 105.007812 32.488281 105.050781 32.292969 104.953125 32.148438 C 104.949219 32.140625 104.378906 31.261719 104.328125 29.78125 C 105.777344 28.128906 107.597656 26.808594 109.664062 25.953125 C 109.183594 27.125 109.230469 28 109.230469 28.042969 C 109.242188 28.210938 109.382812 28.339844 109.546875 28.339844 C 109.550781 28.339844 109.558594 28.339844 109.566406 28.339844 C 109.738281 28.332031 109.871094 28.179688 109.863281 28.007812 C 109.863281 27.996094 109.808594 26.945312 110.507812 25.632812 C 111.960938 25.136719 113.519531 24.867188 115.136719 24.867188 C 115.78125 24.867188 116.417969 24.914062 117.039062 24.996094 C 116.039062 25.769531 115.640625 26.550781 115.621094 26.589844 C 115.542969 26.746094 115.605469 26.933594 115.761719 27.015625 C 115.804688 27.035156 115.855469 27.046875 115.902344 27.046875 C 116.015625 27.046875 116.128906 26.984375 116.183594 26.875 C 116.1875 26.863281 116.679688 25.921875 117.929688 25.140625 C 120.140625 25.578125 122.171875 26.527344 123.894531 27.855469 C 122.648438 28.027344 121.914062 28.503906 121.878906 28.527344 C 121.734375 28.621094 121.691406 28.816406 121.789062 28.960938 C 121.847656 29.054688 121.949219 29.105469 122.054688 29.105469 C 122.113281 29.105469 122.171875 29.089844 122.226562 29.054688 C 122.234375 29.046875 123.125 28.480469 124.59375 28.425781 C 126.246094 29.875 127.566406 31.699219 128.421875 33.761719 C 127.25 33.285156 126.375 33.328125 126.332031 33.332031 C 126.15625 33.339844 126.027344 33.492188 126.035156 33.664062 C 126.046875 33.839844 126.195312 33.972656 126.367188 33.960938 C 126.378906 33.960938 127.4375 33.914062 128.742188 34.609375 C 129.238281 36.0625 129.507812 37.617188 129.507812 39.238281 C 129.507812 39.882812 129.460938 40.515625 129.378906 41.136719 C 128.605469 40.136719 127.824219 39.738281 127.785156 39.71875 C 127.628906 39.640625 127.441406 39.703125 127.359375 39.859375 C 127.28125 40.015625 127.34375 40.203125 127.5 40.28125 Z M 127.5 40.28125 " fill-opacity="1" fill-rule="nonzero"/></g><path fill="#374440" d="M 115.136719 28.8125 C 109.390625 28.8125 104.714844 33.488281 104.714844 39.238281 C 104.714844 44.984375 109.390625 49.660156 115.136719 49.660156 C 120.886719 49.660156 125.5625 44.984375 125.5625 39.238281 C 125.5625 33.488281 120.886719 28.8125 115.136719 28.8125 Z M 115.136719 49.027344 C 109.738281 49.027344 105.347656 44.636719 105.347656 39.238281 C 105.347656 33.839844 109.738281 29.445312 115.136719 29.445312 C 120.535156 29.445312 124.929688 33.839844 124.929688 39.238281 C 124.929688 44.636719 120.535156 49.027344 115.136719 49.027344 Z M 115.136719 49.027344 " fill-opacity="1" fill-rule="nonzero"/><path fill="#374440" d="M 123.988281 37.972656 L 123.988281 37.96875 C 123.988281 37.96875 123.988281 37.96875 123.988281 37.964844 C 123.660156 35.664062 122.449219 33.640625 120.714844 32.25 C 120.699219 32.234375 120.679688 32.21875 120.660156 32.203125 C 120.65625 32.199219 120.648438 32.199219 120.644531 32.195312 C 119.988281 31.683594 119.257812 31.257812 118.476562 30.941406 C 118.472656 30.941406 118.46875 30.9375 118.46875 30.9375 C 118.457031 30.929688 118.445312 30.925781 118.433594 30.921875 C 117.410156 30.519531 116.300781 30.292969 115.136719 30.292969 C 113.976562 30.292969 112.863281 30.519531 111.839844 30.925781 C 111.832031 30.929688 111.820312 30.929688 111.808594 30.9375 C 111.804688 30.9375 111.804688 30.941406 111.800781 30.941406 C 111.015625 31.257812 110.285156 31.683594 109.628906 32.199219 C 109.625 32.199219 109.621094 32.203125 109.613281 32.207031 C 109.59375 32.21875 109.578125 32.234375 109.5625 32.25 C 107.828125 33.640625 106.617188 35.660156 106.289062 37.957031 C 106.285156 37.960938 106.285156 37.964844 106.285156 37.96875 L 106.285156 37.972656 C 106.226562 38.386719 106.195312 38.808594 106.195312 39.238281 C 106.195312 39.667969 106.226562 40.089844 106.285156 40.5 L 106.285156 40.503906 C 106.285156 40.507812 106.285156 40.511719 106.289062 40.515625 C 106.617188 42.816406 107.828125 44.835938 109.5625 46.222656 C 109.578125 46.238281 109.59375 46.257812 109.613281 46.269531 C 109.621094 46.273438 109.625 46.277344 109.632812 46.277344 C 110.289062 46.792969 111.015625 47.214844 111.800781 47.53125 C 111.804688 47.535156 111.804688 47.535156 111.808594 47.539062 C 111.820312 47.542969 111.832031 47.546875 111.839844 47.550781 C 112.863281 47.957031 113.972656 48.179688 115.136719 48.179688 C 116.300781 48.179688 117.402344 47.957031 118.417969 47.554688 C 118.4375 47.550781 118.453125 47.546875 118.46875 47.539062 C 118.46875 47.535156 118.472656 47.535156 118.476562 47.53125 C 119.257812 47.214844 119.988281 46.792969 120.640625 46.28125 C 120.648438 46.277344 120.652344 46.273438 120.660156 46.269531 C 120.679688 46.257812 120.699219 46.238281 120.714844 46.222656 C 122.449219 44.832031 123.660156 42.8125 123.988281 40.507812 C 123.988281 40.507812 123.988281 40.503906 123.988281 40.503906 C 124.046875 40.089844 124.082031 39.667969 124.082031 39.238281 C 124.082031 38.808594 124.046875 38.386719 123.988281 37.972656 Z M 123.304688 37.703125 C 121.675781 37.785156 119.777344 37.601562 119.324219 36.820312 C 118.875 36.039062 119.664062 34.304688 120.550781 32.933594 C 121.953125 34.140625 122.949219 35.808594 123.304688 37.703125 Z M 115.136719 30.925781 C 116.101562 30.925781 117.027344 31.09375 117.890625 31.394531 C 117.148438 32.847656 116.042969 34.402344 115.136719 34.402344 C 114.234375 34.402344 113.125 32.847656 112.382812 31.394531 C 113.246094 31.09375 114.171875 30.925781 115.136719 30.925781 Z M 109.726562 32.933594 C 110.609375 34.304688 111.402344 36.039062 110.949219 36.820312 C 110.5 37.601562 108.597656 37.785156 106.96875 37.703125 C 107.324219 35.808594 108.320312 34.144531 109.726562 32.933594 Z M 106.96875 40.773438 C 108.597656 40.691406 110.5 40.871094 110.949219 41.65625 C 111.402344 42.4375 110.609375 44.171875 109.726562 45.539062 C 108.320312 44.332031 107.324219 42.664062 106.96875 40.773438 Z M 115.136719 47.546875 C 114.171875 47.546875 113.246094 47.382812 112.382812 47.078125 C 113.125 45.628906 114.234375 44.070312 115.136719 44.070312 C 116.042969 44.070312 117.148438 45.628906 117.890625 47.078125 C 117.027344 47.382812 116.101562 47.546875 115.136719 47.546875 Z M 120.550781 45.539062 C 119.664062 44.171875 118.875 42.433594 119.324219 41.65625 C 119.777344 40.871094 121.675781 40.691406 123.304688 40.773438 C 122.949219 42.664062 121.953125 44.332031 120.550781 45.539062 Z M 123.398438 40.144531 C 122.050781 40.070312 119.492188 40.101562 118.777344 41.339844 C 118.066406 42.574219 119.316406 44.804688 120.050781 45.933594 C 119.566406 46.292969 119.039062 46.597656 118.480469 46.84375 C 117.875 45.640625 116.566406 43.441406 115.136719 43.441406 C 113.710938 43.441406 112.402344 45.640625 111.792969 46.84375 C 111.234375 46.597656 110.710938 46.292969 110.222656 45.933594 C 110.960938 44.804688 112.210938 42.574219 111.496094 41.339844 C 110.785156 40.101562 108.222656 40.070312 106.875 40.144531 C 106.84375 39.847656 106.828125 39.542969 106.828125 39.238281 C 106.828125 38.929688 106.84375 38.628906 106.875 38.328125 C 107.121094 38.34375 107.40625 38.351562 107.714844 38.351562 C 109.09375 38.351562 110.914062 38.148438 111.496094 37.136719 C 112.210938 35.898438 110.960938 33.667969 110.222656 32.539062 C 110.710938 32.183594 111.234375 31.875 111.792969 31.628906 C 112.402344 32.835938 113.710938 35.035156 115.136719 35.035156 C 116.566406 35.035156 117.875 32.835938 118.480469 31.628906 C 119.039062 31.875 119.566406 32.183594 120.050781 32.539062 C 119.316406 33.667969 118.066406 35.902344 118.777344 37.136719 C 119.359375 38.148438 121.179688 38.351562 122.5625 38.351562 C 122.867188 38.351562 123.152344 38.34375 123.398438 38.328125 C 123.429688 38.628906 123.449219 38.929688 123.449219 39.238281 C 123.449219 39.542969 123.429688 39.847656 123.398438 40.144531 Z M 123.398438 40.144531 " fill-opacity="1" fill-rule="nonzero"/><path fill="#374440" d="M 118.671875 38.542969 C 118.535156 37.832031 118.179688 37.175781 117.664062 36.667969 C 117.664062 36.503906 117.625 36.339844 117.539062 36.191406 C 117.289062 35.761719 116.746094 35.605469 116.304688 35.828125 C 115.929688 35.699219 115.539062 35.636719 115.136719 35.636719 C 114.808594 35.636719 114.484375 35.679688 114.175781 35.765625 C 114.035156 35.683594 113.875 35.636719 113.699219 35.636719 C 113.199219 35.636719 112.792969 36.03125 112.769531 36.523438 C 112.222656 37 111.832031 37.636719 111.648438 38.335938 C 111.503906 38.417969 111.382812 38.535156 111.300781 38.679688 C 111.175781 38.898438 111.140625 39.148438 111.207031 39.390625 C 111.265625 39.613281 111.40625 39.804688 111.601562 39.929688 C 111.742188 40.640625 112.09375 41.296875 112.613281 41.804688 C 112.609375 41.972656 112.652344 42.136719 112.738281 42.285156 C 112.910156 42.582031 113.222656 42.75 113.546875 42.75 C 113.691406 42.75 113.835938 42.714844 113.96875 42.644531 C 114.34375 42.773438 114.738281 42.839844 115.136719 42.839844 C 115.464844 42.839844 115.789062 42.796875 116.101562 42.707031 C 116.242188 42.792969 116.402344 42.839844 116.574219 42.839844 C 117.074219 42.839844 117.480469 42.445312 117.503906 41.953125 C 118.050781 41.472656 118.445312 40.839844 118.625 40.140625 C 118.765625 40.058594 118.890625 39.945312 118.976562 39.792969 C 119.226562 39.359375 119.085938 38.8125 118.671875 38.542969 Z M 116.441406 36.578125 C 116.460938 36.5 116.511719 36.4375 116.582031 36.398438 C 116.628906 36.371094 116.679688 36.355469 116.730469 36.355469 C 116.835938 36.355469 116.9375 36.410156 116.992188 36.507812 C 117.074219 36.648438 117.023438 36.835938 116.882812 36.917969 C 116.8125 36.957031 116.730469 36.96875 116.652344 36.945312 C 116.574219 36.925781 116.511719 36.875 116.472656 36.808594 C 116.429688 36.738281 116.421875 36.65625 116.441406 36.578125 Z M 113.699219 36.265625 C 113.867188 36.265625 114 36.402344 114 36.566406 C 114 36.734375 113.867188 36.867188 113.699219 36.867188 C 113.535156 36.867188 113.398438 36.734375 113.398438 36.566406 C 113.398438 36.402344 113.535156 36.265625 113.699219 36.265625 Z M 111.957031 39.40625 C 111.886719 39.367188 111.835938 39.300781 111.816406 39.226562 C 111.796875 39.148438 111.804688 39.066406 111.847656 38.996094 C 111.886719 38.929688 111.953125 38.878906 112.027344 38.855469 C 112.054688 38.851562 112.082031 38.847656 112.105469 38.847656 C 112.160156 38.847656 112.210938 38.859375 112.257812 38.886719 C 112.324219 38.925781 112.375 38.992188 112.398438 39.070312 C 112.417969 39.148438 112.40625 39.226562 112.367188 39.296875 C 112.328125 39.367188 112.261719 39.417969 112.183594 39.4375 C 112.105469 39.457031 112.027344 39.449219 111.957031 39.40625 Z M 113.835938 41.894531 C 113.8125 41.972656 113.765625 42.039062 113.695312 42.078125 C 113.550781 42.160156 113.367188 42.109375 113.285156 41.96875 C 113.246094 41.898438 113.234375 41.816406 113.253906 41.738281 C 113.273438 41.664062 113.324219 41.597656 113.394531 41.558594 C 113.441406 41.53125 113.492188 41.515625 113.542969 41.515625 C 113.570312 41.515625 113.597656 41.519531 113.621094 41.527344 C 113.699219 41.546875 113.765625 41.597656 113.804688 41.667969 C 113.84375 41.738281 113.855469 41.816406 113.835938 41.894531 Z M 116.574219 42.207031 C 116.410156 42.207031 116.273438 42.074219 116.273438 41.90625 C 116.273438 41.742188 116.410156 41.605469 116.574219 41.605469 C 116.742188 41.605469 116.875 41.742188 116.875 41.90625 C 116.875 42.074219 116.742188 42.207031 116.574219 42.207031 Z M 117.277344 41.296875 C 117.105469 41.101562 116.855469 40.976562 116.574219 40.976562 C 116.0625 40.976562 115.644531 41.394531 115.644531 41.90625 C 115.644531 41.992188 115.65625 42.078125 115.679688 42.160156 C 115.5 42.191406 115.320312 42.207031 115.136719 42.207031 C 114.894531 42.207031 114.65625 42.179688 114.425781 42.121094 C 114.429688 42.101562 114.4375 42.078125 114.445312 42.058594 C 114.507812 41.820312 114.476562 41.566406 114.351562 41.351562 C 114.226562 41.136719 114.027344 40.980469 113.785156 40.917969 C 113.542969 40.851562 113.292969 40.886719 113.078125 41.011719 C 113.003906 41.054688 112.9375 41.105469 112.878906 41.164062 C 112.605469 40.84375 112.402344 40.46875 112.285156 40.0625 C 112.304688 40.058594 112.328125 40.054688 112.347656 40.046875 C 112.589844 39.984375 112.789062 39.828125 112.914062 39.613281 C 113.039062 39.398438 113.070312 39.144531 113.007812 38.90625 C 112.941406 38.664062 112.789062 38.464844 112.570312 38.339844 C 112.496094 38.296875 112.417969 38.265625 112.335938 38.246094 C 112.480469 37.847656 112.703125 37.484375 112.996094 37.175781 C 113.167969 37.375 113.417969 37.5 113.699219 37.5 C 114.214844 37.5 114.632812 37.082031 114.632812 36.566406 C 114.632812 36.480469 114.621094 36.394531 114.597656 36.316406 C 114.773438 36.285156 114.953125 36.265625 115.136719 36.265625 C 115.378906 36.265625 115.621094 36.296875 115.851562 36.351562 C 115.765625 36.601562 115.785156 36.878906 115.925781 37.121094 C 116.046875 37.339844 116.25 37.492188 116.488281 37.558594 C 116.570312 37.578125 116.652344 37.589844 116.734375 37.589844 C 116.894531 37.589844 117.054688 37.546875 117.199219 37.464844 C 117.273438 37.421875 117.339844 37.367188 117.394531 37.308594 C 117.671875 37.628906 117.875 38.007812 117.992188 38.414062 C 117.96875 38.417969 117.949219 38.421875 117.929688 38.425781 C 117.6875 38.492188 117.488281 38.644531 117.363281 38.863281 C 117.105469 39.304688 117.257812 39.878906 117.703125 40.132812 C 117.777344 40.175781 117.855469 40.210938 117.9375 40.230469 C 117.796875 40.628906 117.570312 40.992188 117.277344 41.296875 Z M 118.429688 39.476562 C 118.347656 39.621094 118.164062 39.671875 118.019531 39.585938 C 117.875 39.503906 117.828125 39.320312 117.910156 39.175781 C 117.949219 39.109375 118.015625 39.058594 118.089844 39.035156 C 118.167969 39.015625 118.25 39.027344 118.320312 39.066406 C 118.460938 39.148438 118.511719 39.332031 118.429688 39.476562 Z M 118.429688 39.476562 " fill-opacity="1" fill-rule="nonzero"/><path fill="#374440" d="M 115.136719 37.277344 C 114.058594 37.277344 113.179688 38.15625 113.179688 39.238281 C 113.179688 40.316406 114.058594 41.195312 115.136719 41.195312 C 116.21875 41.195312 117.097656 40.316406 117.097656 39.238281 C 117.097656 38.15625 116.21875 37.277344 115.136719 37.277344 Z M 115.136719 40.566406 C 114.40625 40.566406 113.808594 39.96875 113.808594 39.238281 C 113.808594 38.503906 114.40625 37.910156 115.136719 37.910156 C 115.871094 37.910156 116.464844 38.503906 116.464844 39.238281 C 116.464844 39.96875 115.871094 40.566406 115.136719 40.566406 Z M 115.136719 40.566406 " fill-opacity="1" fill-rule="nonzero"/></svg>