<svg xmlns="http://www.w3.org/2000/svg" xmlns:xlink="http://www.w3.org/1999/xlink" width="400" zoomAndPan="magnify" viewBox="0 0 300 74.999997" height="100" preserveAspectRatio="xMidYMid meet" version="1.0"><defs><g/><clipPath id="16ea4fdbb8"><path d="M 102.539062 25.058594 L 132.539062 25.058594 L 132.539062 55.058594 L 102.539062 55.058594 Z M 102.539062 25.058594 " clip-rule="nonzero"/></clipPath></defs><g fill="#858585" fill-opacity="1"><g transform="translate(13.260193, 53.249995)"><g><path d="M 23.6875 -6.765625 C 23.976562 -6.066406 24.382812 -5.398438 24.90625 -4.765625 C 25.4375 -4.128906 25.894531 -3.65625 26.28125 -3.34375 C 25.707031 -2.144531 25 -1.269531 24.15625 -0.71875 C 23.457031 -0.257812 22.710938 0.00390625 21.921875 0.078125 C 21.492188 0.117188 21.003906 0.0820312 20.453125 -0.03125 C 19.898438 -0.15625 19.328125 -0.5 18.734375 -1.0625 C 18.148438 -1.625 17.566406 -2.53125 16.984375 -3.78125 C 16.816406 -4.1875 16.445312 -4.472656 15.875 -4.640625 C 15.300781 -4.804688 14.6875 -4.90625 14.03125 -4.9375 C 13.382812 -4.976562 12.859375 -5 12.453125 -5 C 12.046875 -5 11.546875 -4.988281 10.953125 -4.96875 C 10.367188 -4.945312 9.835938 -4.847656 9.359375 -4.671875 C 8.878906 -4.503906 8.59375 -4.207031 8.5 -3.78125 C 8.40625 -3.394531 8.390625 -3 8.453125 -2.59375 C 8.523438 -2.1875 8.679688 -1.921875 8.921875 -1.796875 C 8.515625 -1.410156 8.113281 -1.070312 7.71875 -0.78125 C 7.320312 -0.5 6.921875 -0.273438 6.515625 -0.109375 C 6.015625 0.109375 5.492188 0.21875 4.953125 0.21875 C 4.410156 0.21875 3.800781 0.0976562 3.125 -0.140625 C 2.8125 -0.265625 2.488281 -0.484375 2.15625 -0.796875 C 1.820312 -1.109375 1.59375 -1.539062 1.46875 -2.09375 C 1.351562 -2.644531 1.453125 -3.335938 1.765625 -4.171875 C 1.785156 -4.242188 1.90625 -4.628906 2.125 -5.328125 C 2.34375 -6.023438 2.625 -6.941406 2.96875 -8.078125 C 3.3125 -9.222656 3.691406 -10.488281 4.109375 -11.875 C 4.535156 -13.269531 4.96875 -14.703125 5.40625 -16.171875 C 5.851562 -17.648438 6.285156 -19.070312 6.703125 -20.4375 C 7.128906 -21.8125 7.507812 -23.050781 7.84375 -24.15625 C 8.1875 -25.257812 8.453125 -26.132812 8.640625 -26.78125 C 8.828125 -27.425781 8.921875 -27.75 8.921875 -27.75 C 9.140625 -27.875 9.539062 -28.023438 10.125 -28.203125 C 10.71875 -28.378906 11.351562 -28.484375 12.03125 -28.515625 C 12.769531 -28.554688 13.492188 -28.457031 14.203125 -28.21875 C 14.910156 -27.976562 15.457031 -27.5 15.84375 -26.78125 C 16.007812 -26.5 16.257812 -25.945312 16.59375 -25.125 C 16.925781 -24.3125 17.320312 -23.328125 17.78125 -22.171875 C 18.238281 -21.023438 18.71875 -19.796875 19.21875 -18.484375 C 19.726562 -17.179688 20.226562 -15.882812 20.71875 -14.59375 C 21.207031 -13.3125 21.65625 -12.117188 22.0625 -11.015625 C 22.476562 -9.910156 22.828125 -8.976562 23.109375 -8.21875 C 23.398438 -7.46875 23.59375 -6.984375 23.6875 -6.765625 Z M 12.34375 -11.40625 C 12.96875 -11.457031 13.332031 -11.640625 13.4375 -11.953125 C 13.550781 -12.265625 13.617188 -12.625 13.640625 -13.03125 C 13.640625 -13.289062 13.597656 -13.613281 13.515625 -14 C 13.429688 -14.382812 13.3125 -14.726562 13.15625 -15.03125 C 13 -15.332031 12.800781 -15.484375 12.5625 -15.484375 C 12.226562 -15.484375 11.863281 -15.25 11.46875 -14.78125 C 11.070312 -14.3125 10.847656 -13.835938 10.796875 -13.359375 C 10.722656 -12.898438 10.765625 -12.453125 10.921875 -12.015625 C 11.078125 -11.585938 11.550781 -11.382812 12.34375 -11.40625 Z M 12.34375 -11.40625 "/></g></g></g><g fill="#858585" fill-opacity="1"><g transform="translate(45.516241, 53.249995)"><g><path d="M 22.5 -25.15625 C 22.550781 -24.613281 22.617188 -23.722656 22.703125 -22.484375 C 22.785156 -21.242188 22.847656 -19.816406 22.890625 -18.203125 C 22.941406 -16.597656 22.960938 -14.953125 22.953125 -13.265625 C 22.941406 -11.578125 22.878906 -9.972656 22.765625 -8.453125 C 22.660156 -6.941406 22.476562 -5.6875 22.21875 -4.6875 C 21.78125 -3.03125 20.578125 -1.753906 18.609375 -0.859375 C 16.640625 0.0234375 14.171875 0.46875 11.203125 0.46875 C 9.203125 0.46875 7.503906 0.0976562 6.109375 -0.640625 C 4.722656 -1.390625 3.648438 -2.414062 2.890625 -3.71875 C 2.140625 -5.03125 1.71875 -6.539062 1.625 -8.25 C 1.570312 -9.082031 1.53125 -10.148438 1.5 -11.453125 C 1.476562 -12.765625 1.460938 -14.179688 1.453125 -15.703125 C 1.441406 -17.234375 1.4375 -18.742188 1.4375 -20.234375 C 1.4375 -21.722656 1.441406 -23.082031 1.453125 -24.3125 C 1.460938 -25.550781 1.46875 -26.539062 1.46875 -27.28125 C 1.46875 -28.03125 1.46875 -28.40625 1.46875 -28.40625 C 1.738281 -28.445312 2.203125 -28.457031 2.859375 -28.4375 C 3.523438 -28.414062 4.21875 -28.304688 4.9375 -28.109375 C 5.75 -27.921875 6.492188 -27.597656 7.171875 -27.140625 C 7.859375 -26.679688 8.253906 -26.019531 8.359375 -25.15625 C 8.421875 -24.4375 8.421875 -23.363281 8.359375 -21.9375 C 8.304688 -20.507812 8.257812 -18.878906 8.21875 -17.046875 C 8.1875 -15.210938 8.234375 -13.3125 8.359375 -11.34375 C 8.378906 -10.9375 8.390625 -10.46875 8.390625 -9.9375 C 8.390625 -9.40625 8.46875 -8.882812 8.625 -8.375 C 8.78125 -7.875 9.101562 -7.457031 9.59375 -7.125 C 10.082031 -6.789062 10.84375 -6.625 11.875 -6.625 C 12.90625 -6.625 13.691406 -6.765625 14.234375 -7.046875 C 14.773438 -7.335938 15.164062 -7.734375 15.40625 -8.234375 C 15.644531 -8.742188 15.796875 -9.332031 15.859375 -10 C 15.921875 -10.675781 15.972656 -11.398438 16.015625 -12.171875 C 16.066406 -12.671875 16.085938 -13.410156 16.078125 -14.390625 C 16.066406 -15.378906 16.046875 -16.484375 16.015625 -17.703125 C 15.992188 -18.929688 15.957031 -20.171875 15.90625 -21.421875 C 15.863281 -22.671875 15.816406 -23.820312 15.765625 -24.875 C 15.722656 -25.925781 15.6875 -26.773438 15.65625 -27.421875 C 15.632812 -28.078125 15.625 -28.40625 15.625 -28.40625 C 15.882812 -28.445312 16.34375 -28.457031 17 -28.4375 C 17.664062 -28.414062 18.367188 -28.304688 19.109375 -28.109375 C 19.929688 -27.921875 20.675781 -27.59375 21.34375 -27.125 C 22.019531 -26.65625 22.40625 -26 22.5 -25.15625 Z M 22.5 -25.15625 "/></g></g></g><g fill="#858585" fill-opacity="1"><g transform="translate(74.424287, 53.249995)"><g><path d="M 24.515625 -28.984375 C 24.804688 -28.742188 25.015625 -28.273438 25.140625 -27.578125 C 25.273438 -26.878906 25.328125 -26.128906 25.296875 -25.328125 C 25.273438 -24.523438 25.15625 -23.804688 24.9375 -23.171875 C 24.726562 -22.535156 24.421875 -22.15625 24.015625 -22.03125 C 23.847656 -21.976562 23.503906 -21.910156 22.984375 -21.828125 C 22.472656 -21.742188 22 -21.644531 21.5625 -21.53125 C 21.15625 -21.40625 20.613281 -21.195312 19.9375 -20.90625 C 19.269531 -20.625 18.695312 -20.207031 18.21875 -19.65625 C 17.832031 -19.195312 17.519531 -18.722656 17.28125 -18.234375 C 17.039062 -17.742188 16.910156 -17.113281 16.890625 -16.34375 C 16.859375 -16.03125 16.84375 -15.445312 16.84375 -14.59375 C 16.84375 -13.738281 16.84375 -12.753906 16.84375 -11.640625 C 16.84375 -10.523438 16.847656 -9.425781 16.859375 -8.34375 C 16.878906 -7.269531 16.890625 -6.347656 16.890625 -5.578125 C 16.890625 -4.804688 16.890625 -4.351562 16.890625 -4.21875 C 16.859375 -3.488281 16.925781 -2.875 17.09375 -2.375 C 17.269531 -1.875 17.453125 -1.570312 17.640625 -1.46875 C 17.035156 -1.019531 16.4375 -0.640625 15.84375 -0.328125 C 15.257812 -0.015625 14.429688 0.210938 13.359375 0.359375 C 12.953125 0.410156 12.492188 0.296875 11.984375 0.015625 C 11.484375 -0.253906 11.046875 -0.679688 10.671875 -1.265625 C 10.296875 -1.859375 10.097656 -2.585938 10.078125 -3.453125 C 10.078125 -4.316406 10.070312 -5.425781 10.0625 -6.78125 C 10.050781 -8.132812 10.050781 -9.609375 10.0625 -11.203125 C 10.070312 -12.804688 10.066406 -14.410156 10.046875 -16.015625 C 10.023438 -16.710938 9.921875 -17.375 9.734375 -18 C 9.554688 -18.625 9.265625 -19.164062 8.859375 -19.625 C 8.453125 -20.101562 7.910156 -20.5 7.234375 -20.8125 C 6.566406 -21.125 5.726562 -21.328125 4.71875 -21.421875 C 4.445312 -21.441406 4.082031 -21.507812 3.625 -21.625 C 3.175781 -21.75 2.867188 -21.875 2.703125 -22 C 2.429688 -22.1875 2.210938 -22.550781 2.046875 -23.09375 C 1.878906 -23.632812 1.75 -24.234375 1.65625 -24.890625 C 1.5625 -25.554688 1.492188 -26.210938 1.453125 -26.859375 C 1.421875 -27.503906 1.414062 -28.03125 1.4375 -28.4375 C 1.53125 -28.414062 1.800781 -28.378906 2.25 -28.328125 C 2.695312 -28.285156 3.226562 -28.242188 3.84375 -28.203125 C 4.46875 -28.171875 5.082031 -28.140625 5.6875 -28.109375 C 6.125 -28.085938 6.707031 -28.066406 7.4375 -28.046875 C 8.164062 -28.023438 8.945312 -28 9.78125 -27.96875 C 10.625 -27.945312 11.414062 -27.929688 12.15625 -27.921875 C 12.90625 -27.910156 13.519531 -27.90625 14 -27.90625 C 14.644531 -27.925781 15.398438 -27.945312 16.265625 -27.96875 C 17.128906 -28 17.960938 -28.03125 18.765625 -28.0625 C 19.578125 -28.09375 20.222656 -28.132812 20.703125 -28.1875 C 21.179688 -28.238281 21.691406 -28.304688 22.234375 -28.390625 C 22.773438 -28.472656 23.253906 -28.566406 23.671875 -28.671875 C 24.085938 -28.785156 24.367188 -28.890625 24.515625 -28.984375 Z M 24.515625 -28.984375 "/></g></g></g><g fill="#858585" fill-opacity="1"><g transform="translate(105.709404, 53.249995)"><g/></g></g><g fill="#858585" fill-opacity="1"><g transform="translate(124.645435, 53.249995)"><g/></g></g><g fill="#858585" fill-opacity="1"><g transform="translate(143.584405, 53.249995)"><g><path d="M 24.515625 -28.984375 C 24.804688 -28.742188 25.015625 -28.273438 25.140625 -27.578125 C 25.273438 -26.878906 25.328125 -26.128906 25.296875 -25.328125 C 25.273438 -24.523438 25.15625 -23.804688 24.9375 -23.171875 C 24.726562 -22.535156 24.421875 -22.15625 24.015625 -22.03125 C 23.847656 -21.976562 23.503906 -21.910156 22.984375 -21.828125 C 22.472656 -21.742188 22 -21.644531 21.5625 -21.53125 C 21.15625 -21.40625 20.613281 -21.195312 19.9375 -20.90625 C 19.269531 -20.625 18.695312 -20.207031 18.21875 -19.65625 C 17.832031 -19.195312 17.519531 -18.722656 17.28125 -18.234375 C 17.039062 -17.742188 16.910156 -17.113281 16.890625 -16.34375 C 16.859375 -16.03125 16.84375 -15.445312 16.84375 -14.59375 C 16.84375 -13.738281 16.84375 -12.753906 16.84375 -11.640625 C 16.84375 -10.523438 16.847656 -9.425781 16.859375 -8.34375 C 16.878906 -7.269531 16.890625 -6.347656 16.890625 -5.578125 C 16.890625 -4.804688 16.890625 -4.351562 16.890625 -4.21875 C 16.859375 -3.488281 16.925781 -2.875 17.09375 -2.375 C 17.269531 -1.875 17.453125 -1.570312 17.640625 -1.46875 C 17.035156 -1.019531 16.4375 -0.640625 15.84375 -0.328125 C 15.257812 -0.015625 14.429688 0.210938 13.359375 0.359375 C 12.953125 0.410156 12.492188 0.296875 11.984375 0.015625 C 11.484375 -0.253906 11.046875 -0.679688 10.671875 -1.265625 C 10.296875 -1.859375 10.097656 -2.585938 10.078125 -3.453125 C 10.078125 -4.316406 10.070312 -5.425781 10.0625 -6.78125 C 10.050781 -8.132812 10.050781 -9.609375 10.0625 -11.203125 C 10.070312 -12.804688 10.066406 -14.410156 10.046875 -16.015625 C 10.023438 -16.710938 9.921875 -17.375 9.734375 -18 C 9.554688 -18.625 9.265625 -19.164062 8.859375 -19.625 C 8.453125 -20.101562 7.910156 -20.5 7.234375 -20.8125 C 6.566406 -21.125 5.726562 -21.328125 4.71875 -21.421875 C 4.445312 -21.441406 4.082031 -21.507812 3.625 -21.625 C 3.175781 -21.75 2.867188 -21.875 2.703125 -22 C 2.429688 -22.1875 2.210938 -22.550781 2.046875 -23.09375 C 1.878906 -23.632812 1.75 -24.234375 1.65625 -24.890625 C 1.5625 -25.554688 1.492188 -26.210938 1.453125 -26.859375 C 1.421875 -27.503906 1.414062 -28.03125 1.4375 -28.4375 C 1.53125 -28.414062 1.800781 -28.378906 2.25 -28.328125 C 2.695312 -28.285156 3.226562 -28.242188 3.84375 -28.203125 C 4.46875 -28.171875 5.082031 -28.140625 5.6875 -28.109375 C 6.125 -28.085938 6.707031 -28.066406 7.4375 -28.046875 C 8.164062 -28.023438 8.945312 -28 9.78125 -27.96875 C 10.625 -27.945312 11.414062 -27.929688 12.15625 -27.921875 C 12.90625 -27.910156 13.519531 -27.90625 14 -27.90625 C 14.644531 -27.925781 15.398438 -27.945312 16.265625 -27.96875 C 17.128906 -28 17.960938 -28.03125 18.765625 -28.0625 C 19.578125 -28.09375 20.222656 -28.132812 20.703125 -28.1875 C 21.179688 -28.238281 21.691406 -28.304688 22.234375 -28.390625 C 22.773438 -28.472656 23.253906 -28.566406 23.671875 -28.671875 C 24.085938 -28.785156 24.367188 -28.890625 24.515625 -28.984375 Z M 24.515625 -28.984375 "/></g></g></g><g fill="#858585" fill-opacity="1"><g transform="translate(174.86846, 53.249995)"><g><path d="M 21.28125 -11.40625 C 21.175781 -11.382812 21.035156 -11.253906 20.859375 -11.015625 C 20.679688 -10.773438 20.554688 -10.523438 20.484375 -10.265625 C 20.359375 -9.878906 20.394531 -9.566406 20.59375 -9.328125 C 21.09375 -8.722656 21.738281 -8.019531 22.53125 -7.21875 C 23.320312 -6.414062 24.117188 -5.65625 24.921875 -4.9375 C 25.734375 -4.21875 26.425781 -3.664062 27 -3.28125 C 26.570312 -2.125 25.894531 -1.203125 24.96875 -0.515625 C 24.039062 0.160156 23.015625 0.488281 21.890625 0.46875 C 20.765625 0.445312 19.660156 -0.0546875 18.578125 -1.046875 C 18.429688 -1.191406 18.15625 -1.507812 17.75 -2 C 17.34375 -2.488281 16.875 -3.066406 16.34375 -3.734375 C 15.8125 -4.410156 15.28125 -5.082031 14.75 -5.75 C 14.226562 -6.425781 13.773438 -7.015625 13.390625 -7.515625 C 13.003906 -8.023438 12.765625 -8.335938 12.671875 -8.453125 C 12.210938 -9.054688 11.78125 -9.191406 11.375 -8.859375 C 10.96875 -8.523438 10.71875 -7.828125 10.625 -6.765625 C 10.570312 -6.140625 10.578125 -5.425781 10.640625 -4.625 C 10.703125 -3.820312 10.796875 -3.109375 10.921875 -2.484375 C 11.054688 -1.859375 11.195312 -1.488281 11.34375 -1.375 C 10.832031 -0.988281 10.207031 -0.625 9.46875 -0.28125 C 8.726562 0.0507812 7.875 0.253906 6.90625 0.328125 C 6.550781 0.347656 6.132812 0.25 5.65625 0.03125 C 5.175781 -0.175781 4.757812 -0.523438 4.40625 -1.015625 C 4.0625 -1.515625 3.878906 -2.132812 3.859375 -2.875 C 3.859375 -3.070312 3.847656 -3.578125 3.828125 -4.390625 C 3.816406 -5.203125 3.804688 -6.203125 3.796875 -7.390625 C 3.785156 -8.585938 3.78125 -9.820312 3.78125 -11.09375 C 3.78125 -12.363281 3.773438 -13.5625 3.765625 -14.6875 C 3.753906 -15.8125 3.75 -16.722656 3.75 -17.421875 C 3.75 -18.117188 3.75 -18.46875 3.75 -18.46875 C 3.75 -19.882812 3.710938 -21.066406 3.640625 -22.015625 C 3.566406 -22.960938 3.273438 -23.6875 2.765625 -24.1875 C 2.316406 -24.644531 1.976562 -25.304688 1.75 -26.171875 C 1.519531 -27.035156 1.414062 -27.851562 1.4375 -28.625 C 1.53125 -28.59375 1.816406 -28.554688 2.296875 -28.515625 C 2.785156 -28.484375 3.253906 -28.445312 3.703125 -28.40625 C 4.015625 -28.40625 4.460938 -28.410156 5.046875 -28.421875 C 5.640625 -28.429688 6.269531 -28.445312 6.9375 -28.46875 C 7.613281 -28.5 8.238281 -28.519531 8.8125 -28.53125 C 9.394531 -28.539062 9.828125 -28.554688 10.109375 -28.578125 C 10.328125 -28.578125 10.726562 -28.582031 11.3125 -28.59375 C 11.90625 -28.613281 12.597656 -28.625 13.390625 -28.625 C 14.179688 -28.625 14.984375 -28.613281 15.796875 -28.59375 C 16.617188 -28.582031 17.375 -28.550781 18.0625 -28.5 C 18.757812 -28.457031 19.300781 -28.398438 19.6875 -28.328125 C 21.269531 -28.046875 22.492188 -27.519531 23.359375 -26.75 C 24.222656 -25.976562 24.84375 -25.050781 25.21875 -23.96875 C 25.59375 -22.894531 25.816406 -21.722656 25.890625 -20.453125 C 25.929688 -19.367188 25.804688 -18.238281 25.515625 -17.0625 C 25.234375 -15.882812 24.742188 -14.789062 24.046875 -13.78125 C 23.347656 -12.78125 22.425781 -11.988281 21.28125 -11.40625 Z M 10.6875 -19.15625 C 10.6875 -18.382812 10.863281 -17.8125 11.21875 -17.4375 C 11.582031 -17.070312 11.921875 -16.851562 12.234375 -16.78125 C 12.671875 -16.675781 13.222656 -16.664062 13.890625 -16.75 C 14.566406 -16.84375 15.238281 -17.015625 15.90625 -17.265625 C 16.582031 -17.515625 17.15625 -17.84375 17.625 -18.25 C 18.09375 -18.65625 18.328125 -19.125 18.328125 -19.65625 C 18.328125 -20.351562 18.035156 -20.882812 17.453125 -21.25 C 16.878906 -21.625 16.15625 -21.859375 15.28125 -21.953125 C 14.40625 -22.054688 13.535156 -22.035156 12.671875 -21.890625 C 11.992188 -21.796875 11.488281 -21.492188 11.15625 -20.984375 C 10.820312 -20.484375 10.664062 -19.875 10.6875 -19.15625 Z M 10.6875 -19.15625 "/></g></g></g><g fill="#858585" fill-opacity="1"><g transform="translate(207.844514, 53.249995)"><g><path d="M 23.6875 -6.765625 C 23.976562 -6.066406 24.382812 -5.398438 24.90625 -4.765625 C 25.4375 -4.128906 25.894531 -3.65625 26.28125 -3.34375 C 25.707031 -2.144531 25 -1.269531 24.15625 -0.71875 C 23.457031 -0.257812 22.710938 0.00390625 21.921875 0.078125 C 21.492188 0.117188 21.003906 0.0820312 20.453125 -0.03125 C 19.898438 -0.15625 19.328125 -0.5 18.734375 -1.0625 C 18.148438 -1.625 17.566406 -2.53125 16.984375 -3.78125 C 16.816406 -4.1875 16.445312 -4.472656 15.875 -4.640625 C 15.300781 -4.804688 14.6875 -4.90625 14.03125 -4.9375 C 13.382812 -4.976562 12.859375 -5 12.453125 -5 C 12.046875 -5 11.546875 -4.988281 10.953125 -4.96875 C 10.367188 -4.945312 9.835938 -4.847656 9.359375 -4.671875 C 8.878906 -4.503906 8.59375 -4.207031 8.5 -3.78125 C 8.40625 -3.394531 8.390625 -3 8.453125 -2.59375 C 8.523438 -2.1875 8.679688 -1.921875 8.921875 -1.796875 C 8.515625 -1.410156 8.113281 -1.070312 7.71875 -0.78125 C 7.320312 -0.5 6.921875 -0.273438 6.515625 -0.109375 C 6.015625 0.109375 5.492188 0.21875 4.953125 0.21875 C 4.410156 0.21875 3.800781 0.0976562 3.125 -0.140625 C 2.8125 -0.265625 2.488281 -0.484375 2.15625 -0.796875 C 1.820312 -1.109375 1.59375 -1.539062 1.46875 -2.09375 C 1.351562 -2.644531 1.453125 -3.335938 1.765625 -4.171875 C 1.785156 -4.242188 1.90625 -4.628906 2.125 -5.328125 C 2.34375 -6.023438 2.625 -6.941406 2.96875 -8.078125 C 3.3125 -9.222656 3.691406 -10.488281 4.109375 -11.875 C 4.535156 -13.269531 4.96875 -14.703125 5.40625 -16.171875 C 5.851562 -17.648438 6.285156 -19.070312 6.703125 -20.4375 C 7.128906 -21.8125 7.507812 -23.050781 7.84375 -24.15625 C 8.1875 -25.257812 8.453125 -26.132812 8.640625 -26.78125 C 8.828125 -27.425781 8.921875 -27.75 8.921875 -27.75 C 9.140625 -27.875 9.539062 -28.023438 10.125 -28.203125 C 10.71875 -28.378906 11.351562 -28.484375 12.03125 -28.515625 C 12.769531 -28.554688 13.492188 -28.457031 14.203125 -28.21875 C 14.910156 -27.976562 15.457031 -27.5 15.84375 -26.78125 C 16.007812 -26.5 16.257812 -25.945312 16.59375 -25.125 C 16.925781 -24.3125 17.320312 -23.328125 17.78125 -22.171875 C 18.238281 -21.023438 18.71875 -19.796875 19.21875 -18.484375 C 19.726562 -17.179688 20.226562 -15.882812 20.71875 -14.59375 C 21.207031 -13.3125 21.65625 -12.117188 22.0625 -11.015625 C 22.476562 -9.910156 22.828125 -8.976562 23.109375 -8.21875 C 23.398438 -7.46875 23.59375 -6.984375 23.6875 -6.765625 Z M 12.34375 -11.40625 C 12.96875 -11.457031 13.332031 -11.640625 13.4375 -11.953125 C 13.550781 -12.265625 13.617188 -12.625 13.640625 -13.03125 C 13.640625 -13.289062 13.597656 -13.613281 13.515625 -14 C 13.429688 -14.382812 13.3125 -14.726562 13.15625 -15.03125 C 13 -15.332031 12.800781 -15.484375 12.5625 -15.484375 C 12.226562 -15.484375 11.863281 -15.25 11.46875 -14.78125 C 11.070312 -14.3125 10.847656 -13.835938 10.796875 -13.359375 C 10.722656 -12.898438 10.765625 -12.453125 10.921875 -12.015625 C 11.078125 -11.585938 11.550781 -11.382812 12.34375 -11.40625 Z M 12.34375 -11.40625 "/></g></g></g><g fill="#858585" fill-opacity="1"><g transform="translate(240.100559, 53.249995)"><g><path d="M 24.765625 -19.1875 C 24.890625 -18.46875 24.976562 -17.6875 25.03125 -16.84375 C 25.09375 -16.007812 25.085938 -15 25.015625 -13.8125 C 24.941406 -12.625 24.773438 -11.164062 24.515625 -9.4375 C 24.148438 -7.101562 23.203125 -5.148438 21.671875 -3.578125 C 20.140625 -2.003906 18.207031 -0.976562 15.875 -0.5 C 15.226562 -0.351562 14.472656 -0.25 13.609375 -0.1875 C 12.742188 -0.132812 11.882812 -0.0859375 11.03125 -0.046875 C 10.175781 -0.015625 9.414062 0.0234375 8.75 0.078125 C 8.144531 0.191406 7.421875 0.269531 6.578125 0.3125 C 5.742188 0.363281 4.953125 0.351562 4.203125 0.28125 C 3.460938 0.21875 2.925781 0.0859375 2.59375 -0.109375 C 2.78125 -0.441406 2.929688 -0.945312 3.046875 -1.625 C 3.171875 -2.3125 3.269531 -3.0625 3.34375 -3.875 C 3.414062 -4.695312 3.441406 -5.484375 3.421875 -6.234375 L 3.3125 -18.4375 C 3.3125 -19.414062 3.304688 -20.3125 3.296875 -21.125 C 3.285156 -21.945312 3.253906 -22.585938 3.203125 -23.046875 C 3.148438 -23.546875 2.960938 -23.988281 2.640625 -24.375 C 2.316406 -24.757812 2.082031 -25.144531 1.9375 -25.53125 C 1.5625 -26.582031 1.394531 -27.613281 1.4375 -28.625 C 1.5625 -28.59375 1.832031 -28.554688 2.25 -28.515625 C 2.664062 -28.484375 3.148438 -28.445312 3.703125 -28.40625 C 4.304688 -28.382812 5.25 -28.347656 6.53125 -28.296875 C 7.8125 -28.242188 9.125 -28.195312 10.46875 -28.15625 C 10.46875 -28.15625 10.664062 -28.144531 11.0625 -28.125 C 11.457031 -28.113281 11.957031 -28.082031 12.5625 -28.03125 C 13.164062 -27.988281 13.789062 -27.925781 14.4375 -27.84375 C 15.082031 -27.757812 15.644531 -27.660156 16.125 -27.546875 C 17.6875 -27.128906 19 -26.566406 20.0625 -25.859375 C 21.132812 -25.148438 22 -24.390625 22.65625 -23.578125 C 23.320312 -22.765625 23.820312 -21.96875 24.15625 -21.1875 C 24.488281 -20.40625 24.691406 -19.738281 24.765625 -19.1875 Z M 12.203125 -6.84375 C 13.191406 -7.082031 14.125 -7.554688 15 -8.265625 C 15.875 -8.972656 16.566406 -9.929688 17.078125 -11.140625 C 17.597656 -12.347656 17.785156 -13.832031 17.640625 -15.59375 C 17.472656 -17.875 16.878906 -19.457031 15.859375 -20.34375 C 14.835938 -21.226562 13.507812 -21.679688 11.875 -21.703125 C 11.425781 -21.734375 11.066406 -21.4375 10.796875 -20.8125 C 10.535156 -20.1875 10.359375 -19.175781 10.265625 -17.78125 C 10.210938 -16.875 10.171875 -16.195312 10.140625 -15.75 C 10.117188 -15.300781 10.113281 -14.929688 10.125 -14.640625 C 10.144531 -14.359375 10.140625 -13.988281 10.109375 -13.53125 C 10.109375 -13.53125 10.113281 -13.3125 10.125 -12.875 C 10.144531 -12.445312 10.175781 -11.914062 10.21875 -11.28125 C 10.269531 -10.644531 10.332031 -10 10.40625 -9.34375 C 10.476562 -8.6875 10.5625 -8.128906 10.65625 -7.671875 C 10.78125 -7.160156 11.007812 -6.875 11.34375 -6.8125 C 11.675781 -6.757812 11.960938 -6.769531 12.203125 -6.84375 Z M 12.203125 -6.84375 "/></g></g></g><g fill="#858585" fill-opacity="1"><g transform="translate(271.168611, 53.249995)"><g><path d="M 16.421875 -6.546875 C 16.753906 -6.597656 17.175781 -6.660156 17.6875 -6.734375 C 18.207031 -6.804688 18.703125 -6.894531 19.171875 -7 C 19.640625 -7.101562 19.957031 -7.226562 20.125 -7.375 C 20.4375 -7.113281 20.644531 -6.582031 20.75 -5.78125 C 20.863281 -4.976562 20.820312 -4.144531 20.625 -3.28125 C 20.476562 -2.53125 20.222656 -1.832031 19.859375 -1.1875 C 19.503906 -0.539062 18.992188 -0.144531 18.328125 0 C 17.742188 0.125 17.082031 0.195312 16.34375 0.21875 C 15.601562 0.238281 14.847656 0.238281 14.078125 0.21875 C 13.304688 0.195312 12.601562 0.171875 11.96875 0.140625 C 11.332031 0.117188 10.847656 0.109375 10.515625 0.109375 C 10.179688 0.109375 9.660156 0.113281 8.953125 0.125 C 8.242188 0.132812 7.625 0.15625 7.09375 0.1875 C 6.46875 0.25 5.78125 0.289062 5.03125 0.3125 C 4.289062 0.34375 3.609375 0.320312 2.984375 0.25 C 2.359375 0.175781 1.90625 0.0546875 1.625 -0.109375 C 1.789062 -0.441406 1.929688 -0.945312 2.046875 -1.625 C 2.171875 -2.3125 2.269531 -3.0625 2.34375 -3.875 C 2.414062 -4.695312 2.4375 -5.484375 2.40625 -6.234375 L 2.34375 -12.8125 L 2.34375 -15.875 C 2.34375 -16.738281 2.332031 -17.457031 2.3125 -18.03125 C 2.300781 -18.613281 2.296875 -18.925781 2.296875 -18.96875 C 2.296875 -19.757812 2.257812 -20.609375 2.1875 -21.515625 C 2.125 -22.429688 2.039062 -23.300781 1.9375 -24.125 C 1.84375 -24.957031 1.757812 -25.640625 1.6875 -26.171875 C 1.59375 -26.578125 1.519531 -26.976562 1.46875 -27.375 C 1.425781 -27.769531 1.414062 -28.125 1.4375 -28.4375 C 1.601562 -28.363281 2.0625 -28.296875 2.8125 -28.234375 C 3.570312 -28.179688 4.457031 -28.128906 5.46875 -28.078125 C 5.539062 -28.078125 5.890625 -28.070312 6.515625 -28.0625 C 7.140625 -28.050781 7.910156 -28.03125 8.828125 -28 C 9.753906 -27.976562 10.71875 -27.960938 11.71875 -27.953125 C 12.71875 -27.941406 13.625 -27.9375 14.4375 -27.9375 C 15.25 -27.9375 15.847656 -27.945312 16.234375 -27.96875 C 17.222656 -28.019531 18.054688 -28.097656 18.734375 -28.203125 C 19.421875 -28.316406 19.882812 -28.46875 20.125 -28.65625 C 20.414062 -28.414062 20.6875 -27.960938 20.9375 -27.296875 C 21.1875 -26.640625 21.320312 -25.953125 21.34375 -25.234375 C 21.34375 -24.535156 21.179688 -23.878906 20.859375 -23.265625 C 20.535156 -22.660156 19.953125 -22.25 19.109375 -22.03125 C 18.796875 -21.957031 18.3125 -21.894531 17.65625 -21.84375 C 17 -21.800781 16.363281 -21.773438 15.75 -21.765625 C 15.132812 -21.753906 14.695312 -21.757812 14.4375 -21.78125 C 13.6875 -21.851562 12.914062 -21.773438 12.125 -21.546875 C 11.332031 -21.316406 10.660156 -21.015625 10.109375 -20.640625 C 9.554688 -20.273438 9.269531 -19.875 9.25 -19.4375 C 9.226562 -19.03125 9.394531 -18.691406 9.75 -18.421875 C 10.113281 -18.160156 10.585938 -17.953125 11.171875 -17.796875 C 11.765625 -17.640625 12.394531 -17.535156 13.0625 -17.484375 C 13.738281 -17.441406 14.375 -17.429688 14.96875 -17.453125 C 15.457031 -17.503906 16.007812 -17.585938 16.625 -17.703125 C 17.25 -17.828125 17.632812 -17.953125 17.78125 -18.078125 C 18.09375 -17.804688 18.3125 -17.3125 18.4375 -16.59375 C 18.570312 -15.875 18.570312 -15.128906 18.4375 -14.359375 C 18.3125 -13.734375 18.066406 -13.15625 17.703125 -12.625 C 17.347656 -12.101562 16.847656 -11.75 16.203125 -11.5625 C 15.691406 -11.414062 15.253906 -11.320312 14.890625 -11.28125 C 14.535156 -11.25 14.359375 -11.234375 14.359375 -11.234375 C 12.941406 -11.234375 11.75 -10.984375 10.78125 -10.484375 C 9.8125 -9.992188 9.28125 -9.414062 9.1875 -8.75 C 9.082031 -8.175781 9.203125 -7.644531 9.546875 -7.15625 C 9.898438 -6.675781 10.414062 -6.414062 11.09375 -6.375 C 11.539062 -6.351562 12.117188 -6.347656 12.828125 -6.359375 C 13.535156 -6.367188 14.234375 -6.390625 14.921875 -6.421875 C 15.609375 -6.460938 16.109375 -6.503906 16.421875 -6.546875 Z M 16.421875 -6.546875 "/></g></g></g><g clip-path="url(#16ea4fdbb8)"><path fill="#858585" d="M 117.539062 25.058594 C 109.253906 25.058594 102.539062 31.773438 102.539062 40.058594 C 102.539062 48.339844 109.253906 55.058594 117.539062 55.058594 C 125.820312 55.058594 132.539062 48.339844 132.539062 40.058594 C 132.539062 31.773438 125.820312 25.058594 117.539062 25.058594 Z M 117.539062 50.542969 C 111.746094 50.542969 107.050781 45.847656 107.050781 40.058594 C 107.050781 34.265625 111.746094 29.570312 117.539062 29.570312 C 123.332031 29.570312 128.027344 34.265625 128.027344 40.058594 C 128.027344 45.847656 123.332031 50.542969 117.539062 50.542969 Z M 117.539062 50.542969 " fill-opacity="1" fill-rule="nonzero"/></g><path fill="#858585" d="M 117.539062 30.945312 C 112.515625 30.945312 108.429688 35.03125 108.429688 40.058594 C 108.429688 45.082031 112.515625 49.167969 117.539062 49.167969 C 122.5625 49.167969 126.648438 45.082031 126.648438 40.058594 C 126.648438 35.03125 122.5625 30.945312 117.539062 30.945312 Z M 124.253906 36.675781 L 121.738281 37.355469 C 120.308594 37.746094 118.882812 36.710938 118.8125 35.230469 L 118.683594 32.628906 C 121.125 33.003906 123.175781 34.550781 124.253906 36.675781 Z M 119.417969 40.058594 C 119.417969 41.097656 118.578125 41.9375 117.539062 41.9375 C 116.5 41.9375 115.660156 41.097656 115.660156 40.058594 C 115.660156 39.019531 116.5 38.179688 117.539062 38.179688 C 118.578125 38.179688 119.417969 39.019531 119.417969 40.058594 Z M 116.394531 32.628906 L 116.261719 35.230469 C 116.191406 36.710938 114.765625 37.746094 113.335938 37.355469 L 110.820312 36.675781 C 111.902344 34.550781 113.953125 33.003906 116.394531 32.628906 Z M 110.015625 40.058594 C 110.015625 39.644531 110.054688 39.25 110.117188 38.855469 L 112.550781 39.777344 C 113.9375 40.304688 114.480469 41.980469 113.667969 43.21875 L 112.242188 45.398438 C 110.871094 44.03125 110.015625 42.144531 110.015625 40.058594 Z M 114.101562 46.742188 L 115.730469 44.71875 C 116.65625 43.5625 118.417969 43.5625 119.34375 44.71875 L 120.976562 46.746094 C 119.941406 47.277344 118.777344 47.585938 117.539062 47.585938 C 116.296875 47.582031 115.132812 47.277344 114.101562 46.742188 Z M 122.832031 45.398438 L 121.40625 43.222656 C 120.597656 41.980469 121.140625 40.304688 122.523438 39.78125 L 124.960938 38.855469 C 125.023438 39.25 125.0625 39.648438 125.0625 40.058594 C 125.0625 42.144531 124.207031 44.035156 122.832031 45.398438 Z M 122.832031 45.398438 " fill-opacity="1" fill-rule="nonzero"/></svg>